<?xml version="1.0" encoding="UTF-8" standalone="no"?>
<!-- Created with Inkscape (http://www.inkscape.org/) -->

<svg
   xmlns:dc="http://purl.org/dc/elements/1.1/"
   xmlns:cc="http://creativecommons.org/ns#"
   xmlns:rdf="http://www.w3.org/1999/02/22-rdf-syntax-ns#"
   xmlns:svg="http://www.w3.org/2000/svg"
   xmlns="http://www.w3.org/2000/svg"
   xmlns:sodipodi="http://sodipodi.sourceforge.net/DTD/sodipodi-0.dtd"
   xmlns:inkscape="http://www.inkscape.org/namespaces/inkscape"
   version="1.1"
   width="50"
   height="50"
   id="svg2"
   xml:space="preserve"
   inkscape:version="0.48.3.1 r9886"
   sodipodi:docname="generic.svg"><sodipodi:namedview
     pagecolor="#ffffff"
     bordercolor="#666666"
     borderopacity="1"
     objecttolerance="10"
     gridtolerance="10"
     guidetolerance="10"
     inkscape:pageopacity="0"
     inkscape:pageshadow="2"
     inkscape:window-width="640"
     inkscape:window-height="480"
     id="namedview10"
     showgrid="false"
     inkscape:zoom="4.72"
     inkscape:cx="25"
     inkscape:cy="25"
     inkscape:window-x="0"
     inkscape:window-y="0"
     inkscape:window-maximized="0"
     inkscape:current-layer="svg2" /><metadata
     id="metadata8"><rdf:RDF><cc:Work
         rdf:about=""><dc:format>image/svg+xml</dc:format><dc:type
           rdf:resource="http://purl.org/dc/dcmitype/StillImage" /><dc:title /></cc:Work></rdf:RDF></metadata><defs
     id="defs6" /><path
     sodipodi:type="spiral"
     style="fill:none;stroke:#000000;stroke-width:1px;stroke-linecap:butt;stroke-linejoin:miter;stroke-opacity:1"
     id="path2991"
     sodipodi:cx="23.728813"
     sodipodi:cy="23.728813"
     sodipodi:expansion="1"
     sodipodi:revolution="3"
     sodipodi:radius="20.93066"
     sodipodi:argument="-18.476568"
     sodipodi:t0="0"
     d="m 23.728813,23.728813 c 0.977274,0.382412 -0.03333,1.506015 -0.635593,1.624294 -1.632094,0.32053 -2.704855,-1.480266 -2.612995,-2.89548 0.164318,-2.531487 2.830612,-3.986131 5.155368,-3.601695 3.411673,0.564175 5.294104,4.1952 4.590396,7.415254 -0.937933,4.291826 -5.56431,6.612775 -9.675142,5.579097 -5.173062,-1.300779 -7.936842,-6.935446 -6.567797,-11.935029 1.658097,-6.055166 8.307695,-9.26401 14.194916,-7.556498 6.937886,2.012244 10.593118,9.680634 8.545198,16.454803 -2.364405,7.821045 -11.054035,11.923523 -18.71469,9.533899 C 9.3039518,35.632215 4.7536391,25.919697 7.4858745,17.372881 10.55103,7.7846457 21.2876,2.7860742 30.720338,5.8615806 41.192466,9.2759758 46.639612,21.03745 43.22034,31.355932" /></svg>