<?xml version="1.0" encoding="UTF-8" standalone="no"?>
<!-- Created with Inkscape (http://www.inkscape.org/) -->

<svg
   xmlns:dc="http://purl.org/dc/elements/1.1/"
   xmlns:cc="http://creativecommons.org/ns#"
   xmlns:rdf="http://www.w3.org/1999/02/22-rdf-syntax-ns#"
   xmlns:svg="http://www.w3.org/2000/svg"
   xmlns="http://www.w3.org/2000/svg"
   version="1.1"
   width="50"
   height="50"
   id="svg2"
   xml:space="preserve"><metadata
     id="metadata8"><rdf:RDF><cc:Work
         rdf:about=""><dc:format>image/svg+xml</dc:format><dc:type
           rdf:resource="http://purl.org/dc/dcmitype/StillImage" /><dc:title></dc:title></cc:Work></rdf:RDF></metadata><defs
     id="defs6"><clipPath
       id="clipPath16"><path
         d="M 0,100 50,100 50,0 0,0 0,100 z"
         id="path18" /></clipPath></defs><g
     transform="matrix(1.25,0,0,-1.25,0,50)"
     id="g10"><g
       transform="matrix(0.90145842,0,0,0.90920097,-2.5364604,-41.371065)"
       id="g12"><g
         clip-path="url(#clipPath16)"
         id="g14"><path
           d="M 5,80 45,80 45,55 5,55 5,80 z"
           id="path20"
           style="fill:none;stroke:#000000;stroke-width:3;stroke-linecap:round;stroke-linejoin:round;stroke-miterlimit:4;stroke-opacity:1;stroke-dasharray:none" /></g></g><g
       transform="matrix(0.90145842,0,0,0.90920097,6.4781238,25.000605)"
       id="g22"><path
         d="M 0,0 10,-10"
         id="path24"
         style="fill:none;stroke:#000000;stroke-width:3;stroke-linecap:round;stroke-linejoin:round;stroke-miterlimit:4;stroke-opacity:1;stroke-dasharray:none" /></g><g
       transform="matrix(0.90145842,0,0,0.90920097,6.4781238,15.908596)"
       id="g26"><path
         d="M 0,0 10,10"
         id="path28"
         style="fill:none;stroke:#000000;stroke-width:3;stroke-linecap:round;stroke-linejoin:round;stroke-miterlimit:4;stroke-opacity:1;stroke-dasharray:none" /></g><g
       transform="matrix(0.90145842,0,0,0.90920097,19.098542,14.090194)"
       id="g30"><path
         d="M 0,0 16,0"
         id="path32"
         style="fill:none;stroke:#000000;stroke-width:3;stroke-linecap:round;stroke-linejoin:round;stroke-miterlimit:4;stroke-opacity:1;stroke-dasharray:none" /></g></g></svg>