<?xml version="1.0" encoding="utf-8" ?>
<!DOCTYPE svg PUBLIC "-//W3C//DTD SVG 1.1//EN" "http://www.w3.org/Graphics/SVG/1.1/DTD/svg11.dtd">
<svg height="943" version="1.1" width="1541" xmlns="http://www.w3.org/2000/svg">
<rect fill="#ffffff" height="25" stroke="#ffffff" stroke-width="1" width="145" x="118" y="86"/>
<rect fill="none" height="25" stroke="#000000" stroke-width="1" width="145" x="118" y="86"/>
<text font-family="Lucida Grande" font-size="13" x="123" y="100">
+ VectorEditorProject</text>
<rect fill="#ffffff" height="755" stroke="#ffffff" stroke-width="1" width="541" x="390" y="174"/>
<rect fill="none" height="755" stroke="#000000" stroke-width="1" width="541" x="390" y="174"/>
<text font-family="Lucida Grande" font-size="13" x="596" y="188">
+ ApplicationFacade</text>
<rect fill="#000000" height="1" stroke="#000000" stroke-width="1" width="541" x="390" y="198"/>
<text font-family="Lucida Grande" font-size="13" x="394" y="213">
-_hasWritablePermissions : Boolean  = false</text>
<text font-family="Lucida Grande" font-size="13" x="394" y="230">
-_selectionStart : Integer  = -1</text>
<text font-family="Lucida Grande" font-size="13" x="394" y="247">
-_selectionEnd : Integer  = -1</text>
<text font-family="Lucida Grande" font-size="13" x="394" y="264">
-_caretPosition : Integer  = -1</text>
<text font-family="Lucida Grande" font-size="13" x="394" y="281">
-_applicationInitialized : Boolean  = false</text>
<text font-family="Lucida Grande" font-size="13" x="394" y="298">
-entryId : String</text>
<text font-family="Lucida Grande" font-size="13" x="394" y="315">
-sessionId : String</text>
<text font-family="Lucida Grande" font-size="13" x="394" y="332">
-projectId : String</text>
<text font-family="Lucida Grande" font-size="13" x="394" y="349">
-saveSequenceContent : String</text>
<text font-family="Lucida Grande" font-size="13" x="394" y="366">
-browserSavedState : Boolean  = true</text>
<rect fill="#000000" height="1" stroke="#000000" stroke-width="1" width="541" x="390" y="376"/>
<text font-family="Lucida Grande" font-size="13" x="394" y="391">
+initializeControls(applicationPanel : ApplicationPanel)</text>
<text font-family="Lucida Grande" font-size="13" x="394" y="408">
+initializeParameters(sessionId : String,entryId : String,projectId : String)</text>
<text font-family="Lucida Grande" font-size="13" x="394" y="425">
+saveProject()</text>
<text font-family="Lucida Grande" font-size="13" x="394" y="442">
+createProject()</text>
<text font-family="Lucida Grande" font-size="13" x="394" y="459">
+updateProject( : VectorEditorProject)</text>
<text font-family="Lucida Grande" font-size="13" x="394" y="476">
+updateSequence( : FeaturedDNASequence)</text>
<text font-family="Lucida Grande" font-size="13" x="394" y="493">
+updateBrowserSaveTitleState(isSaved : Boolean)</text>
<text font-family="Lucida Grande" font-size="13" x="394" y="510">
+saveUserPreferences( : UserPreferences)</text>
<text font-family="Lucida Grande" font-size="13" x="394" y="527">
+updateUserPreferences( : UserPreferences)</text>
<text font-family="Lucida Grande" font-size="13" x="394" y="544">
+saveUserRestrictionEnzymes( : UserRestrictionEnzymes)</text>
<text font-family="Lucida Grande" font-size="13" x="394" y="561">
+updateUserRestrictionEnzymes( : UserRestrictionEnzymes)</text>
<text font-family="Lucida Grande" font-size="13" x="394" y="578">
+updateEntryPermissions(hasWritable : Boolean)</text>
<text font-family="Lucida Grande" font-size="13" x="394" y="595">
+importSequence(data : String)</text>
<text font-family="Lucida Grande" font-size="13" x="394" y="612">
+importSequenceViaServer(data : String)</text>
<text font-family="Lucida Grande" font-size="13" x="394" y="629">
+generateAndFetchSequence()</text>
<text font-family="Lucida Grande" font-size="13" x="394" y="646">
+saveSequence()</text>
<text font-family="Lucida Grande" font-size="13" x="394" y="663">
+generateSequence()</text>
<text font-family="Lucida Grande" font-size="13" x="394" y="680">
+generateSequenceOnServer()</text>
<text font-family="Lucida Grande" font-size="13" x="394" y="697">
+downloadSequence(content : String)</text>
<text font-family="Lucida Grande" font-size="13" x="394" y="714">
-onActionStackChanged( : ActionStackEvent)</text>
<text font-family="Lucida Grande" font-size="13" x="394" y="731">
-onSequenceChanging( : SequenceProviderEvent)</text>
<text font-family="Lucida Grande" font-size="13" x="394" y="748">
-onSequenceProviderChanged( : SequenceProviderEvent)</text>
<text font-family="Lucida Grande" font-size="13" x="394" y="765">
-onSequenceGeneratedAlertClose( : CloseEvent)</text>
<text font-family="Lucida Grande" font-size="13" x="394" y="782">
-onExportSequenceComplete( : Event)</text>
<text font-family="Lucida Grande" font-size="13" x="394" y="799">
-onExportIOSequenceError( : Event)</text>
<text font-family="Lucida Grande" font-size="13" x="394" y="816">
-initializeProxy()</text>
<text font-family="Lucida Grande" font-size="13" x="394" y="833">
-initializeStandaloneApplication()</text>
<text font-family="Lucida Grande" font-size="13" x="394" y="850">
-initializeRegistryEditionApplication()</text>
<text font-family="Lucida Grande" font-size="13" x="394" y="867">
-initializeEntryEditionApplication()</text>
<text font-family="Lucida Grande" font-size="13" x="394" y="884">
-createNewEmptyProject()</text>
<text font-family="Lucida Grande" font-size="13" x="394" y="901">
-createEmptySequence()</text>
<text font-family="Lucida Grande" font-size="13" x="394" y="918">
-loadSequence()</text>
<rect fill="#ffffff" height="25" stroke="#ffffff" stroke-width="1" width="168" x="30" y="166"/>
<rect fill="none" height="25" stroke="#000000" stroke-width="1" width="168" x="30" y="166"/>
<text font-family="Lucida Grande" font-size="13" x="36" y="180">
+ FeaturedDNASequence</text>
<rect fill="#ffffff" height="50" stroke="#ffffff" stroke-width="1" width="197" x="310" y="54"/>
<rect fill="none" height="50" stroke="#000000" stroke-width="1" width="197" x="310" y="54"/>
<text font-family="Lucida Grande" font-size="13" x="366" y="68">
+ ORFMapper</text>
<rect fill="#000000" height="1" stroke="#000000" stroke-width="1" width="197" x="310" y="78"/>
<text font-family="Lucida Grande" font-size="13" x="314" y="93">
+minORFSize : Integer  = 300</text>
<rect fill="#ffffff" height="25" stroke="#ffffff" stroke-width="1" width="90" x="150" y="302"/>
<rect fill="none" height="25" stroke="#000000" stroke-width="1" width="90" x="150" y="302"/>
<text font-family="Lucida Grande" font-size="13" x="156" y="316">
+ AAMapper</text>
<rect fill="#ffffff" height="25" stroke="#ffffff" stroke-width="1" width="188" x="1134" y="514"/>
<rect fill="none" height="25" stroke="#000000" stroke-width="1" width="188" x="1134" y="514"/>
<text font-family="Lucida Grande" font-size="13" x="1140" y="528">
+ RestrictionEnzymeMapper</text>
<rect fill="#ffffff" height="254" stroke="#ffffff" stroke-width="1" width="481" x="1046" y="46"/>
<rect fill="none" height="254" stroke="#000000" stroke-width="1" width="481" x="1046" y="46"/>
<text font-family="Lucida Grande" font-size="13" x="1226" y="60">
+ RegistryAPIProxy</text>
<rect fill="#000000" height="1" stroke="#000000" stroke-width="1" width="481" x="1046" y="70"/>
<text font-family="Lucida Grande" font-size="13" x="1050" y="85">
+saveVectorEditorProject(sessionId : String, : VectorEditorProject)</text>
<text font-family="Lucida Grande" font-size="13" x="1050" y="102">
+createVectorEditorProject(sessionId : String, : VectorEditorProject)</text>
<text font-family="Lucida Grande" font-size="13" x="1050" y="119">
+fetchUserPreferences(sessionId : String)</text>
<text font-family="Lucida Grande" font-size="13" x="1050" y="136">
+saveUserPreferences(sessionId : String, : UserPreferences)</text>
<text font-family="Lucida Grande" font-size="13" x="1050" y="153">
+fetchUserRestrictionEnzymes(sessionId : String)</text>
<text font-family="Lucida Grande" font-size="13" x="1050" y="170">
+saveUserRestrictionEnzymes(sessionId : String, : UserRestrictionEnzymes)</text>
<text font-family="Lucida Grande" font-size="13" x="1050" y="187">
+hasWritablePermissions(sessionId : String,entryId : String)</text>
<text font-family="Lucida Grande" font-size="13" x="1050" y="204">
+parseSequenceFile( : String)</text>
<text font-family="Lucida Grande" font-size="13" x="1050" y="221">
+generateSequence(sessionId : String, : FeaturedDNASequence)</text>
<text font-family="Lucida Grande" font-size="13" x="1050" y="238">
+saveSequence(sessionId : String,entryId : String, : FeaturedDNASequence)</text>
<text font-family="Lucida Grande" font-size="13" x="1050" y="255">
+generateSequenceFile( : FeaturedDNASequence)</text>
<text font-family="Lucida Grande" font-size="13" x="1050" y="272">
+getVectorEditorProject(sessionId : String,projectId : String)</text>
<text font-family="Lucida Grande" font-size="13" x="1050" y="289">
+fetchSequence(sessionId : String,entryId : String)</text>
<rect fill="#ffffff" height="177" stroke="#ffffff" stroke-width="1" width="219" x="1102" y="738"/>
<rect fill="none" height="177" stroke="#000000" stroke-width="1" width="219" x="1102" y="738"/>
<text font-family="Lucida Grande" font-size="13" x="1167" y="752">
+ ActionStack</text>
<rect fill="#000000" height="1" stroke="#000000" stroke-width="1" width="219" x="1102" y="762"/>
<text font-family="Lucida Grande" font-size="13" x="1106" y="777">
+undoStack [0..*] : Class</text>
<text font-family="Lucida Grande" font-size="13" x="1106" y="794">
+redoStack [0..*] : Class</text>
<rect fill="#000000" height="1" stroke="#000000" stroke-width="1" width="219" x="1102" y="804"/>
<text font-family="Lucida Grande" font-size="13" x="1106" y="819">
+undo()</text>
<text font-family="Lucida Grande" font-size="13" x="1106" y="836">
+redo()</text>
<text font-family="Lucida Grande" font-size="13" x="1106" y="853">
+undoStackIsEmpty()</text>
<text font-family="Lucida Grande" font-size="13" x="1106" y="870">
+redoStackIsEmpty()</text>
<text font-family="Lucida Grande" font-size="13" x="1106" y="887">
+add()</text>
<text font-family="Lucida Grande" font-size="13" x="1106" y="904">
+clear()</text>
<rect fill="#ffffff" height="45" stroke="#ffffff" stroke-width="1" width="108" x="1102" y="338"/>
<rect fill="none" height="45" stroke="#000000" stroke-width="1" width="108" x="1102" y="338"/>
<text font-family="Lucida Grande" font-size="13" x="1107" y="372">
+ FileReference</text>
<text font-family="Lucida Grande" font-size="13" x="1124" y="353">
&lt;&lt;flex&gt;&gt;</text>
<polyline fill="none" points="390,318 239,318" stroke="#000000" stroke-width="1"/>
<line fill="#000000" stroke="#000000" stroke-width="1" x1="251" x2="239" y1="311" y2="318"/>
<line fill="#000000" stroke="#000000" stroke-width="1" x1="251" x2="239" y1="325" y2="318"/>
<text font-family="Lucida Grande" font-size="13" x="260" y="297">
 </text>
<text font-family="Lucida Grande" font-size="13" x="257" y="305">
-aaMapper</text>
<polyline fill="none" points="930,854 1102,854" stroke="#000000" stroke-width="1"/>
<line fill="#000000" stroke="#000000" stroke-width="1" x1="1090" x2="1102" y1="861" y2="854"/>
<line fill="#000000" stroke="#000000" stroke-width="1" x1="1090" x2="1102" y1="847" y2="854"/>
<text font-family="Lucida Grande" font-size="13" x="985" y="834">
 </text>
<text font-family="Lucida Grande" font-size="13" x="1006" y="821">
-actionStack</text>
<polyline fill="none" points="930,222 1046,222" stroke="#000000" stroke-width="1"/>
<line fill="#000000" stroke="#000000" stroke-width="1" x1="1034" x2="1046" y1="229" y2="222"/>
<line fill="#000000" stroke="#000000" stroke-width="1" x1="1034" x2="1046" y1="215" y2="222"/>
<text font-family="Lucida Grande" font-size="13" x="943" y="202">
 </text>
<text font-family="Lucida Grande" font-size="13" x="945" y="181">
-serviceProxy</text>
<polyline fill="none" points="390,182 197,182" stroke="#000000" stroke-width="1"/>
<line fill="#000000" stroke="#000000" stroke-width="1" x1="209" x2="197" y1="175" y2="182"/>
<line fill="#000000" stroke="#000000" stroke-width="1" x1="209" x2="197" y1="189" y2="182"/>
<text font-family="Lucida Grande" font-size="13" x="263" y="162">
 </text>
<text font-family="Lucida Grande" font-size="13" x="205" y="197">
-sequence</text>
<polyline fill="none" points="390,174 262,110" stroke="#000000" stroke-width="1"/>
<line fill="#000000" stroke="#000000" stroke-width="1" x1="275" x2="262" y1="109" y2="110"/>
<line fill="#000000" stroke="#000000" stroke-width="1" x1="269" x2="262" y1="121" y2="110"/>
<text font-family="Lucida Grande" font-size="13" x="309" y="121">
 </text>
<text font-family="Lucida Grande" font-size="13" x="251" y="149">
-project</text>
<polyline fill="none" points="398,174 398,103" stroke="#000000" stroke-width="1"/>
<line fill="#000000" stroke="#000000" stroke-width="1" x1="405" x2="398" y1="115" y2="103"/>
<line fill="#000000" stroke="#000000" stroke-width="1" x1="391" x2="398" y1="115" y2="103"/>
<text font-family="Lucida Grande" font-size="13" x="320" y="144">
 </text>
<text font-family="Lucida Grande" font-size="13" x="403" y="123">
-orfMapper</text>
<rect fill="#ffffff" height="118" stroke="#ffffff" stroke-width="1" width="283" x="702" y="14"/>
<rect fill="none" height="118" stroke="#000000" stroke-width="1" width="283" x="702" y="14"/>
<text font-family="Lucida Grande" font-size="13" x="786" y="28">
+ UserPreferences</text>
<rect fill="#000000" height="1" stroke="#000000" stroke-width="1" width="283" x="702" y="38"/>
<text font-family="Lucida Grande" font-size="13" x="706" y="53">
-bpPerRow : Integer  = -1</text>
<text font-family="Lucida Grande" font-size="13" x="706" y="70">
-sequenceFontSize : Integer  = 11</text>
<text font-family="Lucida Grande" font-size="13" x="706" y="87">
-orfMinimumLength : Integer  = 300</text>
<text font-family="Lucida Grande" font-size="13" x="706" y="104">
-labelsFontSize : Integer  = 10</text>
<text font-family="Lucida Grande" font-size="13" x="706" y="121">
-maxRestrictionEnzymeCuts : Integer  = -1</text>
<polyline fill="none" points="790,174 790,131" stroke="#000000" stroke-width="1"/>
<line fill="#000000" stroke="#000000" stroke-width="1" x1="797" x2="790" y1="143" y2="131"/>
<line fill="#000000" stroke="#000000" stroke-width="1" x1="783" x2="790" y1="143" y2="131"/>
<text font-family="Lucida Grande" font-size="13" x="712" y="158">
 </text>
<text font-family="Lucida Grande" font-size="13" x="793" y="155">
-userPreferences</text>
<polyline fill="none" points="930,526 1134,526" stroke="#000000" stroke-width="1"/>
<line fill="#000000" stroke="#000000" stroke-width="1" x1="1122" x2="1134" y1="533" y2="526"/>
<line fill="#000000" stroke="#000000" stroke-width="1" x1="1122" x2="1134" y1="519" y2="526"/>
<text font-family="Lucida Grande" font-size="13" x="1002" y="504">
 </text>
<text font-family="Lucida Grande" font-size="13" x="944" y="541">
-restrictionEnzymeMapper</text>
<polyline fill="none" points="930,358 1102,358" stroke="#000000" stroke-width="1"/>
<line fill="#000000" stroke="#000000" stroke-width="1" x1="1090" x2="1102" y1="365" y2="358"/>
<line fill="#000000" stroke="#000000" stroke-width="1" x1="1090" x2="1102" y1="351" y2="358"/>
<text font-family="Lucida Grande" font-size="13" x="985" y="338">
 </text>
<text font-family="Lucida Grande" font-size="13" x="1011" y="373">
-fileReference</text>
<rect fill="#ffffff" height="67" stroke="#ffffff" stroke-width="1" width="131" x="534" y="54"/>
<rect fill="none" height="67" stroke="#000000" stroke-width="1" width="131" x="534" y="54"/>
<text font-family="Lucida Grande" font-size="13" x="571" y="68">
+ Facade</text>
<rect fill="#000000" height="1" stroke="#000000" stroke-width="1" width="131" x="534" y="78"/>
<text font-family="Lucida Grande" font-size="13" x="538" y="93">
+registerMediator()</text>
<text font-family="Lucida Grande" font-size="13" x="538" y="110">
+sendNotification()</text>
<polyline fill="none" points="598,174 598,120" stroke="#000000" stroke-width="1"/>
<polygon fill="#ffffff" points="598,120 605,132 591,132" stroke="#ffffff" stroke-width="1"/>
<polygon fill="none" points="598,120 605,132 591,132" stroke="#000000" stroke-width="1"/>
<rect fill="#ffffff" height="50" stroke="#ffffff" stroke-width="1" width="297" x="1086" y="666"/>
<rect fill="none" height="50" stroke="#000000" stroke-width="1" width="297" x="1086" y="666"/>
<text font-family="Lucida Grande" font-size="13" x="1164" y="680">
+ ApplicationMediator</text>
<rect fill="#000000" height="1" stroke="#000000" stroke-width="1" width="297" x="1086" y="690"/>
<text font-family="Lucida Grande" font-size="13" x="1090" y="705">
-importSequenceFileReference : FileReference</text>
<rect fill="#ffffff" height="25" stroke="#ffffff" stroke-width="1" width="234" x="1110" y="602"/>
<rect fill="none" height="25" stroke="#000000" stroke-width="1" width="234" x="1110" y="602"/>
<text font-family="Lucida Grande" font-size="13" x="1116" y="616">
+ RestrictionEnzymeGroupManager</text>
<line fill="#000000" stroke="#000000" stroke-width="1" x1="930" x2="935" y1="614" y2="614"/>
<line fill="#000000" stroke="#000000" stroke-width="1" x1="940" x2="945" y1="614" y2="614"/>
<line fill="#000000" stroke="#000000" stroke-width="1" x1="950" x2="955" y1="614" y2="614"/>
<line fill="#000000" stroke="#000000" stroke-width="1" x1="960" x2="965" y1="614" y2="614"/>
<line fill="#000000" stroke="#000000" stroke-width="1" x1="970" x2="975" y1="614" y2="614"/>
<line fill="#000000" stroke="#000000" stroke-width="1" x1="980" x2="985" y1="614" y2="614"/>
<line fill="#000000" stroke="#000000" stroke-width="1" x1="990" x2="995" y1="614" y2="614"/>
<line fill="#000000" stroke="#000000" stroke-width="1" x1="1000" x2="1005" y1="614" y2="614"/>
<line fill="#000000" stroke="#000000" stroke-width="1" x1="1010" x2="1015" y1="614" y2="614"/>
<line fill="#000000" stroke="#000000" stroke-width="1" x1="1020" x2="1025" y1="614" y2="614"/>
<line fill="#000000" stroke="#000000" stroke-width="1" x1="1030" x2="1035" y1="614" y2="614"/>
<line fill="#000000" stroke="#000000" stroke-width="1" x1="1040" x2="1045" y1="614" y2="614"/>
<line fill="#000000" stroke="#000000" stroke-width="1" x1="1050" x2="1055" y1="614" y2="614"/>
<line fill="#000000" stroke="#000000" stroke-width="1" x1="1060" x2="1065" y1="614" y2="614"/>
<line fill="#000000" stroke="#000000" stroke-width="1" x1="1070" x2="1075" y1="614" y2="614"/>
<line fill="#000000" stroke="#000000" stroke-width="1" x1="1080" x2="1085" y1="614" y2="614"/>
<line fill="#000000" stroke="#000000" stroke-width="1" x1="1090" x2="1095" y1="614" y2="614"/>
<line fill="#000000" stroke="#000000" stroke-width="1" x1="1100" x2="1105" y1="614" y2="614"/>
<line fill="#000000" stroke="#000000" stroke-width="1" x1="1098" x2="1110" y1="621" y2="614"/>
<line fill="#000000" stroke="#000000" stroke-width="1" x1="1098" x2="1110" y1="607" y2="614"/>
<line fill="#000000" stroke="#000000" stroke-width="1" x1="930" x2="935" y1="694" y2="694"/>
<line fill="#000000" stroke="#000000" stroke-width="1" x1="940" x2="945" y1="694" y2="694"/>
<line fill="#000000" stroke="#000000" stroke-width="1" x1="950" x2="955" y1="694" y2="694"/>
<line fill="#000000" stroke="#000000" stroke-width="1" x1="960" x2="965" y1="694" y2="694"/>
<line fill="#000000" stroke="#000000" stroke-width="1" x1="970" x2="975" y1="694" y2="694"/>
<line fill="#000000" stroke="#000000" stroke-width="1" x1="980" x2="985" y1="694" y2="694"/>
<line fill="#000000" stroke="#000000" stroke-width="1" x1="990" x2="995" y1="694" y2="694"/>
<line fill="#000000" stroke="#000000" stroke-width="1" x1="1000" x2="1005" y1="694" y2="694"/>
<line fill="#000000" stroke="#000000" stroke-width="1" x1="1010" x2="1015" y1="694" y2="694"/>
<line fill="#000000" stroke="#000000" stroke-width="1" x1="1020" x2="1025" y1="694" y2="694"/>
<line fill="#000000" stroke="#000000" stroke-width="1" x1="1030" x2="1035" y1="694" y2="694"/>
<line fill="#000000" stroke="#000000" stroke-width="1" x1="1040" x2="1045" y1="694" y2="694"/>
<line fill="#000000" stroke="#000000" stroke-width="1" x1="1050" x2="1055" y1="694" y2="694"/>
<line fill="#000000" stroke="#000000" stroke-width="1" x1="1060" x2="1065" y1="694" y2="694"/>
<line fill="#000000" stroke="#000000" stroke-width="1" x1="1070" x2="1075" y1="694" y2="694"/>
<line fill="#000000" stroke="#000000" stroke-width="1" x1="1080" x2="1085" y1="694" y2="694"/>
<line fill="#000000" stroke="#000000" stroke-width="1" x1="1074" x2="1086" y1="701" y2="694"/>
<line fill="#000000" stroke="#000000" stroke-width="1" x1="1074" x2="1086" y1="687" y2="694"/>
<text font-family="Lucida Grande" font-size="13" x="979" y="675">
registers</text>
<rect fill="#ffffff" height="67" stroke="#ffffff" stroke-width="1" width="421" x="1046" y="414"/>
<rect fill="none" height="67" stroke="#000000" stroke-width="1" width="421" x="1046" y="414"/>
<text font-family="Lucida Grande" font-size="13" x="1164" y="428">
+ FeaturedDNASequenceUtils</text>
<rect fill="#000000" height="1" stroke="#000000" stroke-width="1" width="421" x="1046" y="438"/>
<text font-family="Lucida Grande" font-size="13" x="1050" y="453">
+sequenceProviderToFeaturedDNASequence( : SequenceProvider)</text>
<text font-family="Lucida Grande" font-size="13" x="1050" y="470">
+featuredDNASequenceToSequenceProvider()</text>
<line fill="#000000" stroke="#000000" stroke-width="1" x1="930" x2="935" y1="446" y2="446"/>
<line fill="#000000" stroke="#000000" stroke-width="1" x1="940" x2="945" y1="446" y2="446"/>
<line fill="#000000" stroke="#000000" stroke-width="1" x1="950" x2="955" y1="446" y2="446"/>
<line fill="#000000" stroke="#000000" stroke-width="1" x1="960" x2="965" y1="446" y2="446"/>
<line fill="#000000" stroke="#000000" stroke-width="1" x1="970" x2="975" y1="446" y2="446"/>
<line fill="#000000" stroke="#000000" stroke-width="1" x1="980" x2="985" y1="446" y2="446"/>
<line fill="#000000" stroke="#000000" stroke-width="1" x1="990" x2="995" y1="446" y2="446"/>
<line fill="#000000" stroke="#000000" stroke-width="1" x1="1000" x2="1005" y1="446" y2="446"/>
<line fill="#000000" stroke="#000000" stroke-width="1" x1="1010" x2="1015" y1="446" y2="446"/>
<line fill="#000000" stroke="#000000" stroke-width="1" x1="1020" x2="1025" y1="446" y2="446"/>
<line fill="#000000" stroke="#000000" stroke-width="1" x1="1030" x2="1035" y1="446" y2="446"/>
<line fill="#000000" stroke="#000000" stroke-width="1" x1="1040" x2="1045" y1="446" y2="446"/>
<line fill="#000000" stroke="#000000" stroke-width="1" x1="1034" x2="1046" y1="453" y2="446"/>
<line fill="#000000" stroke="#000000" stroke-width="1" x1="1034" x2="1046" y1="439" y2="446"/>
<rect fill="#ffffff" height="254" stroke="#ffffff" stroke-width="1" width="331" x="14" y="430"/>
<rect fill="none" height="254" stroke="#000000" stroke-width="1" width="331" x="14" y="430"/>
<text font-family="Lucida Grande" font-size="13" x="131" y="444">
+ Notifications</text>
<rect fill="#000000" height="1" stroke="#000000" stroke-width="1" width="331" x="14" y="454"/>
<text font-family="Lucida Grande" font-size="13" x="18" y="469">
+APPLICATION_FAILURE : String</text>
<text font-family="Lucida Grande" font-size="13" x="18" y="486">
+SEQUENCE_UPDATED : String</text>
<text font-family="Lucida Grande" font-size="13" x="18" y="503">
+SHOW_PIE : String</text>
<text font-family="Lucida Grande" font-size="13" x="18" y="520">
+SHOW_RAIL : String</text>
<text font-family="Lucida Grande" font-size="13" x="18" y="537">
+USER_PREFERENCES_CHANGED : String</text>
<text font-family="Lucida Grande" font-size="13" x="18" y="554">
+USER_RESTRICTION_ENZYMES_CHANGED : String</text>
<text font-family="Lucida Grande" font-size="13" x="18" y="571">
+PERMISSIONS_FETCHED : String</text>
<text font-family="Lucida Grande" font-size="13" x="18" y="588">
+ACTION_MESSAGE : String</text>
<text font-family="Lucida Grande" font-size="13" x="18" y="605">
+SEQUENCE_GENERATED_AND_FETCHED : String</text>
<text font-family="Lucida Grande" font-size="13" x="18" y="622">
+SEQUENCE_FILE_GENERATED : Integer</text>
<text font-family="Lucida Grande" font-size="13" x="18" y="639">
+ACTION_STACK_CHANGED : Integer</text>
<text font-family="Lucida Grande" font-size="13" x="18" y="656">
+SEQUENCE_PROVIDER_CHANGED : Integer</text>
<text font-family="Lucida Grande" font-size="13" x="18" y="673">
+PROJECT_UPDATED : Integer</text>
<line fill="#000000" stroke="#000000" stroke-width="1" x1="390" x2="385" y1="566" y2="566"/>
<line fill="#000000" stroke="#000000" stroke-width="1" x1="380" x2="375" y1="566" y2="566"/>
<line fill="#000000" stroke="#000000" stroke-width="1" x1="370" x2="365" y1="566" y2="566"/>
<line fill="#000000" stroke="#000000" stroke-width="1" x1="360" x2="355" y1="566" y2="566"/>
<line fill="#000000" stroke="#000000" stroke-width="1" x1="350" x2="345" y1="566" y2="566"/>
<line fill="#000000" stroke="#000000" stroke-width="1" x1="356" x2="344" y1="559" y2="566"/>
<line fill="#000000" stroke="#000000" stroke-width="1" x1="356" x2="344" y1="573" y2="566"/>
<rect fill="#ffffff" height="70" stroke="#ffffff" stroke-width="1" width="131" x="206" y="830"/>
<rect fill="none" height="70" stroke="#000000" stroke-width="1" width="131" x="206" y="830"/>
<text font-family="Lucida Grande" font-size="13" x="211" y="864">
+ ExternalInterface</text>
<text font-family="Lucida Grande" font-size="13" x="239" y="845">
&lt;&lt;flex&gt;&gt;</text>
<rect fill="#000000" height="1" stroke="#000000" stroke-width="1" width="131" x="206" y="874"/>
<text font-family="Lucida Grande" font-size="13" x="210" y="889">
+call()</text>
<line fill="#000000" stroke="#000000" stroke-width="1" x1="390" x2="385" y1="870" y2="870"/>
<line fill="#000000" stroke="#000000" stroke-width="1" x1="380" x2="375" y1="870" y2="870"/>
<line fill="#000000" stroke="#000000" stroke-width="1" x1="370" x2="365" y1="870" y2="870"/>
<line fill="#000000" stroke="#000000" stroke-width="1" x1="360" x2="355" y1="870" y2="870"/>
<line fill="#000000" stroke="#000000" stroke-width="1" x1="350" x2="345" y1="870" y2="870"/>
<line fill="#000000" stroke="#000000" stroke-width="1" x1="340" x2="336" y1="870" y2="870"/>
<line fill="#000000" stroke="#000000" stroke-width="1" x1="348" x2="336" y1="863" y2="870"/>
<line fill="#000000" stroke="#000000" stroke-width="1" x1="348" x2="336" y1="877" y2="870"/>
<rect fill="#ffffff" height="67" stroke="#ffffff" stroke-width="1" width="197" x="94" y="734"/>
<rect fill="none" height="67" stroke="#000000" stroke-width="1" width="197" x="94" y="734"/>
<text font-family="Lucida Grande" font-size="13" x="135" y="748">
+ StandAloneUtils</text>
<rect fill="#000000" height="1" stroke="#000000" stroke-width="1" width="197" x="94" y="758"/>
<text font-family="Lucida Grande" font-size="13" x="98" y="773">
+standaloneSequence()</text>
<text font-family="Lucida Grande" font-size="13" x="98" y="790">
+standaloneUserPreferences()</text>
<line fill="#000000" stroke="#000000" stroke-width="1" x1="390" x2="385" y1="776" y2="776"/>
<line fill="#000000" stroke="#000000" stroke-width="1" x1="380" x2="375" y1="776" y2="776"/>
<line fill="#000000" stroke="#000000" stroke-width="1" x1="370" x2="365" y1="776" y2="776"/>
<line fill="#000000" stroke="#000000" stroke-width="1" x1="360" x2="355" y1="776" y2="776"/>
<line fill="#000000" stroke="#000000" stroke-width="1" x1="350" x2="345" y1="776" y2="776"/>
<line fill="#000000" stroke="#000000" stroke-width="1" x1="340" x2="335" y1="776" y2="776"/>
<line fill="#000000" stroke="#000000" stroke-width="1" x1="330" x2="325" y1="776" y2="776"/>
<line fill="#000000" stroke="#000000" stroke-width="1" x1="320" x2="315" y1="776" y2="776"/>
<line fill="#000000" stroke="#000000" stroke-width="1" x1="310" x2="305" y1="776" y2="776"/>
<line fill="#000000" stroke="#000000" stroke-width="1" x1="300" x2="295" y1="776" y2="776"/>
<line fill="#000000" stroke="#000000" stroke-width="1" x1="302" x2="290" y1="769" y2="776"/>
<line fill="#000000" stroke="#000000" stroke-width="1" x1="302" x2="290" y1="783" y2="776"/>
<rect fill="#ffffff" height="25" stroke="#ffffff" stroke-width="1" width="136" x="54" y="238"/>
<rect fill="none" height="25" stroke="#000000" stroke-width="1" width="136" x="54" y="238"/>
<text font-family="Lucida Grande" font-size="13" x="60" y="252">
+ SequenceProvider</text>
<line fill="#000000" stroke="#000000" stroke-width="1" x1="114" x2="114" y1="238" y2="233"/>
<line fill="#000000" stroke="#000000" stroke-width="1" x1="114" x2="114" y1="228" y2="223"/>
<line fill="#000000" stroke="#000000" stroke-width="1" x1="114" x2="114" y1="218" y2="213"/>
<line fill="#000000" stroke="#000000" stroke-width="1" x1="114" x2="114" y1="208" y2="203"/>
<line fill="#000000" stroke="#000000" stroke-width="1" x1="114" x2="114" y1="198" y2="193"/>
<line fill="#000000" stroke="#000000" stroke-width="1" x1="121" x2="114" y1="202" y2="190"/>
<line fill="#000000" stroke="#000000" stroke-width="1" x1="107" x2="114" y1="202" y2="190"/>
<polyline fill="none" points="390,254 189,254" stroke="#000000" stroke-width="1"/>
<line fill="#000000" stroke="#000000" stroke-width="1" x1="201" x2="189" y1="247" y2="254"/>
<line fill="#000000" stroke="#000000" stroke-width="1" x1="201" x2="189" y1="261" y2="254"/>
<text font-family="Lucida Grande" font-size="13" x="259" y="234">
 </text>
<text font-family="Lucida Grande" font-size="13" x="207" y="270">
-sequenceProvider</text>
<rect fill="#ffffff" height="25" stroke="#ffffff" stroke-width="1" width="125" x="126" y="358"/>
<rect fill="none" height="25" stroke="#000000" stroke-width="1" width="125" x="126" y="358"/>
<text font-family="Lucida Grande" font-size="13" x="132" y="372">
+ GenbankFormat</text>
<line fill="#000000" stroke="#000000" stroke-width="1" x1="390" x2="385" y1="374" y2="374"/>
<line fill="#000000" stroke="#000000" stroke-width="1" x1="380" x2="375" y1="374" y2="374"/>
<line fill="#000000" stroke="#000000" stroke-width="1" x1="370" x2="365" y1="374" y2="374"/>
<line fill="#000000" stroke="#000000" stroke-width="1" x1="360" x2="355" y1="374" y2="374"/>
<line fill="#000000" stroke="#000000" stroke-width="1" x1="350" x2="345" y1="374" y2="374"/>
<line fill="#000000" stroke="#000000" stroke-width="1" x1="340" x2="335" y1="374" y2="374"/>
<line fill="#000000" stroke="#000000" stroke-width="1" x1="330" x2="325" y1="374" y2="374"/>
<line fill="#000000" stroke="#000000" stroke-width="1" x1="320" x2="315" y1="374" y2="374"/>
<line fill="#000000" stroke="#000000" stroke-width="1" x1="310" x2="305" y1="374" y2="374"/>
<line fill="#000000" stroke="#000000" stroke-width="1" x1="300" x2="295" y1="374" y2="374"/>
<line fill="#000000" stroke="#000000" stroke-width="1" x1="290" x2="285" y1="374" y2="374"/>
<line fill="#000000" stroke="#000000" stroke-width="1" x1="280" x2="275" y1="374" y2="374"/>
<line fill="#000000" stroke="#000000" stroke-width="1" x1="270" x2="265" y1="374" y2="374"/>
<line fill="#000000" stroke="#000000" stroke-width="1" x1="260" x2="255" y1="374" y2="374"/>
<line fill="#000000" stroke="#000000" stroke-width="1" x1="262" x2="250" y1="367" y2="374"/>
<line fill="#000000" stroke="#000000" stroke-width="1" x1="262" x2="250" y1="381" y2="374"/>
</svg>
