<?xml version="1.0" encoding="utf-8" ?>
<!DOCTYPE svg PUBLIC "-//W3C//DTD SVG 1.1//EN" "http://www.w3.org/Graphics/SVG/1.1/DTD/svg11.dtd">
<svg height="833" version="1.1" width="1260" xmlns="http://www.w3.org/2000/svg">
<rect fill="#ffffff" height="415" stroke="#ffffff" stroke-width="1" width="413" x="450" y="185"/>
<rect fill="none" height="415" stroke="#000000" stroke-width="1" width="413" x="450" y="185"/>
<text font-family="Lucida Grande" font-size="13" x="600" y="199">
+ GenbankFormat</text>
<rect fill="#000000" height="1" stroke="#000000" stroke-width="1" width="413" x="450" y="209"/>
<rect fill="#000000" height="1" stroke="#000000" stroke-width="1" width="413" x="450" y="232"/>
<text font-family="Lucida Grande" font-size="13" x="454" y="247">
+parseGenbankFile( : String) : GenbankFileModel</text>
<text font-family="Lucida Grande" font-size="13" x="454" y="264">
+generateGenbankFile( : GenbankFileModel)</text>
<text font-family="Lucida Grande" font-size="13" x="454" y="281">
-parseKeywordBlock( : String) : GenbankKeyword</text>
<text font-family="Lucida Grande" font-size="13" x="454" y="298">
-extractOrigin( : String) : ArrayList</text>
<text font-family="Lucida Grande" font-size="13" x="454" y="315">
-splitKeywordBlocks( : String) : ArrayList</text>
<text font-family="Lucida Grande" font-size="13" x="454" y="332">
-splitSubKeywordBlocks( : String) : ArrayList</text>
<text font-family="Lucida Grande" font-size="13" x="454" y="349">
-parseSubKeywordBlock( : String) : GenbankSubKeyword</text>
<text font-family="Lucida Grande" font-size="13" x="454" y="366">
-splitFeatureKeywordBlocks( : String) : ArrayList</text>
<text font-family="Lucida Grande" font-size="13" x="454" y="383">
+parseGenbankLocation( : String) : ArrayList</text>
<text font-family="Lucida Grande" font-size="13" x="454" y="400">
-parseFeatureKeywordBlock( : String) : GenbankFeatureQualifier</text>
<text font-family="Lucida Grande" font-size="13" x="454" y="417">
-splitFeatureQualifierBlocks( : String) : ArrayList</text>
<text font-family="Lucida Grande" font-size="13" x="454" y="434">
-parseFeatureQualifierBlock( : String) : GenbankFeatureElement</text>
<text font-family="Lucida Grande" font-size="13" x="454" y="451">
-parseLocusBlock( : String) : GenbankLocusKeyword</text>
<text font-family="Lucida Grande" font-size="13" x="454" y="468">
-splitBlocksByCharAt( : String, : Integer) : ArrayList</text>
<text font-family="Lucida Grande" font-size="13" x="454" y="485">
-generateLocusKeyword( : GenbankLocusKeyword) : String</text>
<text font-family="Lucida Grande" font-size="13" x="454" y="502">
-generateOriginKeyword( : GenbankOriginKeyword) : String</text>
<text font-family="Lucida Grande" font-size="13" x="454" y="519">
-generateKeyword( : GenbankKeyword) : String</text>
<text font-family="Lucida Grande" font-size="13" x="454" y="536">
-generateFeatureKeyword( : GenbankFeatureKeyword) : String</text>
<text font-family="Lucida Grande" font-size="13" x="454" y="553">
-generateFeatureQualifiers( : ArrayList) : String</text>
<text font-family="Lucida Grande" font-size="13" x="454" y="570">
-paddedString( : String, : Integer, : Boolean) : String</text>
<text font-family="Lucida Grande" font-size="13" x="454" y="587">
-wrapLines( : String, : Integer) : String</text>
<rect fill="#ffffff" height="84" stroke="#ffffff" stroke-width="1" width="148" x="922" y="177"/>
<rect fill="none" height="84" stroke="#000000" stroke-width="1" width="148" x="922" y="177"/>
<text font-family="Lucida Grande" font-size="13" x="931" y="191">
+ GenbankFileModel</text>
<rect fill="#000000" height="1" stroke="#000000" stroke-width="1" width="148" x="922" y="201"/>
<text font-family="Lucida Grande" font-size="13" x="926" y="216">
-accession : String</text>
<text font-family="Lucida Grande" font-size="13" x="926" y="233">
-version : String</text>
<text font-family="Lucida Grande" font-size="13" x="926" y="250">
-keywordsTag : String</text>
<rect fill="#ffffff" height="50" stroke="#ffffff" stroke-width="1" width="173" x="930" y="345"/>
<rect fill="none" height="50" stroke="#000000" stroke-width="1" width="173" x="930" y="345"/>
<text font-family="Lucida Grande" font-size="13" x="936" y="359">
+ GenbankOriginKeyword</text>
<rect fill="#000000" height="1" stroke="#000000" stroke-width="1" width="173" x="930" y="369"/>
<text font-family="Lucida Grande" font-size="13" x="934" y="384">
-sequence : String</text>
<rect fill="#ffffff" height="67" stroke="#ffffff" stroke-width="1" width="134" x="938" y="505"/>
<rect fill="none" height="67" stroke="#000000" stroke-width="1" width="134" x="938" y="505"/>
<text font-family="Lucida Grande" font-size="13" x="944" y="519">
+ GenbankKeyword</text>
<rect fill="#000000" height="1" stroke="#000000" stroke-width="1" width="134" x="938" y="529"/>
<text font-family="Lucida Grande" font-size="13" x="942" y="544">
-keyword : String</text>
<text font-family="Lucida Grande" font-size="13" x="942" y="561">
-value : String</text>
<rect fill="#ffffff" height="67" stroke="#ffffff" stroke-width="1" width="157" x="698" y="648"/>
<rect fill="none" height="67" stroke="#000000" stroke-width="1" width="157" x="698" y="648"/>
<text font-family="Lucida Grande" font-size="13" x="704" y="662">
+ GenbankSubKeyword</text>
<rect fill="#000000" height="1" stroke="#000000" stroke-width="1" width="157" x="698" y="672"/>
<text font-family="Lucida Grande" font-size="13" x="702" y="687">
-key : String</text>
<text font-family="Lucida Grande" font-size="13" x="702" y="704">
-value : String</text>
<rect fill="#ffffff" height="152" stroke="#ffffff" stroke-width="1" width="170" x="402" y="632"/>
<rect fill="none" height="152" stroke="#000000" stroke-width="1" width="170" x="402" y="632"/>
<text font-family="Lucida Grande" font-size="13" x="407" y="646">
+ GenbankLocusKeyword</text>
<rect fill="#000000" height="1" stroke="#000000" stroke-width="1" width="170" x="402" y="656"/>
<text font-family="Lucida Grande" font-size="13" x="406" y="671">
-locusName : String</text>
<text font-family="Lucida Grande" font-size="13" x="406" y="688">
-strandType : String</text>
<text font-family="Lucida Grande" font-size="13" x="406" y="705">
-sequenceLength : String</text>
<text font-family="Lucida Grande" font-size="13" x="406" y="722">
-naType : String</text>
<text font-family="Lucida Grande" font-size="13" x="406" y="739">
-linear : Boolean</text>
<text font-family="Lucida Grande" font-size="13" x="406" y="756">
-divisionCode : String</text>
<text font-family="Lucida Grande" font-size="13" x="406" y="773">
-date : Date</text>
<rect fill="#ffffff" height="25" stroke="#ffffff" stroke-width="1" width="181" x="170" y="457"/>
<rect fill="none" height="25" stroke="#000000" stroke-width="1" width="181" x="170" y="457"/>
<text font-family="Lucida Grande" font-size="13" x="176" y="471">
+ GenbankFeatureKeyword</text>
<rect fill="#ffffff" height="84" stroke="#ffffff" stroke-width="1" width="181" x="162" y="273"/>
<rect fill="none" height="84" stroke="#000000" stroke-width="1" width="181" x="162" y="273"/>
<text font-family="Lucida Grande" font-size="13" x="168" y="287">
+ GenbankFeatureQualifier</text>
<rect fill="#000000" height="1" stroke="#000000" stroke-width="1" width="181" x="162" y="297"/>
<text font-family="Lucida Grande" font-size="13" x="166" y="312">
-name : String</text>
<text font-family="Lucida Grande" font-size="13" x="166" y="329">
-value : String</text>
<text font-family="Lucida Grande" font-size="13" x="166" y="346">
-quoted : Boolean</text>
<rect fill="#ffffff" height="67" stroke="#ffffff" stroke-width="1" width="177" x="202" y="88"/>
<rect fill="none" height="67" stroke="#000000" stroke-width="1" width="177" x="202" y="88"/>
<text font-family="Lucida Grande" font-size="13" x="208" y="102">
+ GenbankFeatureElement</text>
<rect fill="#000000" height="1" stroke="#000000" stroke-width="1" width="177" x="202" y="112"/>
<text font-family="Lucida Grande" font-size="13" x="206" y="127">
-key : String</text>
<text font-family="Lucida Grande" font-size="13" x="206" y="144">
-strand : Integer</text>
<rect fill="#ffffff" height="70" stroke="#ffffff" stroke-width="1" width="102" x="650" y="49"/>
<rect fill="none" height="70" stroke="#000000" stroke-width="1" width="102" x="650" y="49"/>
<text font-family="Lucida Grande" font-size="13" x="664" y="83">
+ StringUtil</text>
<text font-family="Lucida Grande" font-size="13" x="669" y="64">
&lt;&lt;flex&gt;&gt;</text>
<rect fill="#000000" height="1" stroke="#000000" stroke-width="1" width="102" x="650" y="93"/>
<text font-family="Lucida Grande" font-size="13" x="654" y="108">
+trim( : String)</text>
<line fill="#000000" stroke="#000000" stroke-width="1" x1="698" x2="698" y1="185" y2="180"/>
<line fill="#000000" stroke="#000000" stroke-width="1" x1="698" x2="698" y1="175" y2="170"/>
<line fill="#000000" stroke="#000000" stroke-width="1" x1="698" x2="698" y1="165" y2="160"/>
<line fill="#000000" stroke="#000000" stroke-width="1" x1="698" x2="698" y1="155" y2="150"/>
<line fill="#000000" stroke="#000000" stroke-width="1" x1="698" x2="698" y1="145" y2="140"/>
<line fill="#000000" stroke="#000000" stroke-width="1" x1="698" x2="698" y1="135" y2="130"/>
<line fill="#000000" stroke="#000000" stroke-width="1" x1="698" x2="698" y1="125" y2="120"/>
<line fill="#000000" stroke="#000000" stroke-width="1" x1="705" x2="698" y1="130" y2="118"/>
<line fill="#000000" stroke="#000000" stroke-width="1" x1="691" x2="698" y1="130" y2="118"/>
<line fill="#000000" stroke="#000000" stroke-width="1" x1="450" x2="446" y1="185" y2="184"/>
<line fill="#000000" stroke="#000000" stroke-width="1" x1="441" x2="437" y1="182" y2="180"/>
<line fill="#000000" stroke="#000000" stroke-width="1" x1="432" x2="427" y1="178" y2="176"/>
<line fill="#000000" stroke="#000000" stroke-width="1" x1="423" x2="418" y1="174" y2="172"/>
<line fill="#000000" stroke="#000000" stroke-width="1" x1="414" x2="409" y1="170" y2="168"/>
<line fill="#000000" stroke="#000000" stroke-width="1" x1="404" x2="400" y1="166" y2="164"/>
<line fill="#000000" stroke="#000000" stroke-width="1" x1="395" x2="390" y1="162" y2="160"/>
<line fill="#000000" stroke="#000000" stroke-width="1" x1="386" x2="381" y1="158" y2="156"/>
<line fill="#000000" stroke="#000000" stroke-width="1" x1="391" x2="378" y1="152" y2="154"/>
<line fill="#000000" stroke="#000000" stroke-width="1" x1="386" x2="378" y1="165" y2="154"/>
<line fill="#000000" stroke="#000000" stroke-width="1" x1="450" x2="445" y1="340" y2="340"/>
<line fill="#000000" stroke="#000000" stroke-width="1" x1="440" x2="435" y1="340" y2="340"/>
<line fill="#000000" stroke="#000000" stroke-width="1" x1="430" x2="425" y1="340" y2="340"/>
<line fill="#000000" stroke="#000000" stroke-width="1" x1="420" x2="415" y1="340" y2="340"/>
<line fill="#000000" stroke="#000000" stroke-width="1" x1="410" x2="405" y1="340" y2="340"/>
<line fill="#000000" stroke="#000000" stroke-width="1" x1="400" x2="395" y1="340" y2="340"/>
<line fill="#000000" stroke="#000000" stroke-width="1" x1="390" x2="385" y1="340" y2="340"/>
<line fill="#000000" stroke="#000000" stroke-width="1" x1="380" x2="375" y1="340" y2="340"/>
<line fill="#000000" stroke="#000000" stroke-width="1" x1="370" x2="365" y1="340" y2="340"/>
<line fill="#000000" stroke="#000000" stroke-width="1" x1="360" x2="355" y1="340" y2="340"/>
<line fill="#000000" stroke="#000000" stroke-width="1" x1="350" x2="345" y1="340" y2="340"/>
<line fill="#000000" stroke="#000000" stroke-width="1" x1="354" x2="342" y1="333" y2="340"/>
<line fill="#000000" stroke="#000000" stroke-width="1" x1="354" x2="342" y1="347" y2="340"/>
<line fill="#000000" stroke="#000000" stroke-width="1" x1="450" x2="445" y1="472" y2="472"/>
<line fill="#000000" stroke="#000000" stroke-width="1" x1="440" x2="435" y1="472" y2="472"/>
<line fill="#000000" stroke="#000000" stroke-width="1" x1="430" x2="425" y1="472" y2="472"/>
<line fill="#000000" stroke="#000000" stroke-width="1" x1="420" x2="415" y1="472" y2="472"/>
<line fill="#000000" stroke="#000000" stroke-width="1" x1="410" x2="405" y1="472" y2="472"/>
<line fill="#000000" stroke="#000000" stroke-width="1" x1="400" x2="395" y1="472" y2="472"/>
<line fill="#000000" stroke="#000000" stroke-width="1" x1="390" x2="385" y1="472" y2="472"/>
<line fill="#000000" stroke="#000000" stroke-width="1" x1="380" x2="375" y1="472" y2="472"/>
<line fill="#000000" stroke="#000000" stroke-width="1" x1="370" x2="365" y1="472" y2="472"/>
<line fill="#000000" stroke="#000000" stroke-width="1" x1="360" x2="355" y1="472" y2="472"/>
<line fill="#000000" stroke="#000000" stroke-width="1" x1="362" x2="350" y1="465" y2="472"/>
<line fill="#000000" stroke="#000000" stroke-width="1" x1="362" x2="350" y1="479" y2="472"/>
<line fill="#000000" stroke="#000000" stroke-width="1" x1="531" x2="531" y1="599" y2="604"/>
<line fill="#000000" stroke="#000000" stroke-width="1" x1="531" x2="531" y1="609" y2="614"/>
<line fill="#000000" stroke="#000000" stroke-width="1" x1="531" x2="531" y1="619" y2="624"/>
<line fill="#000000" stroke="#000000" stroke-width="1" x1="531" x2="531" y1="629" y2="632"/>
<line fill="#000000" stroke="#000000" stroke-width="1" x1="524" x2="531" y1="620" y2="632"/>
<line fill="#000000" stroke="#000000" stroke-width="1" x1="538" x2="531" y1="620" y2="632"/>
<line fill="#000000" stroke="#000000" stroke-width="1" x1="802" x2="802" y1="599" y2="604"/>
<line fill="#000000" stroke="#000000" stroke-width="1" x1="802" x2="802" y1="609" y2="614"/>
<line fill="#000000" stroke="#000000" stroke-width="1" x1="802" x2="802" y1="619" y2="624"/>
<line fill="#000000" stroke="#000000" stroke-width="1" x1="802" x2="802" y1="629" y2="634"/>
<line fill="#000000" stroke="#000000" stroke-width="1" x1="802" x2="802" y1="639" y2="644"/>
<line fill="#000000" stroke="#000000" stroke-width="1" x1="795" x2="802" y1="636" y2="648"/>
<line fill="#000000" stroke="#000000" stroke-width="1" x1="809" x2="802" y1="636" y2="648"/>
<line fill="#000000" stroke="#000000" stroke-width="1" x1="862" x2="867" y1="571" y2="571"/>
<line fill="#000000" stroke="#000000" stroke-width="1" x1="872" x2="877" y1="571" y2="571"/>
<line fill="#000000" stroke="#000000" stroke-width="1" x1="882" x2="887" y1="571" y2="571"/>
<line fill="#000000" stroke="#000000" stroke-width="1" x1="892" x2="897" y1="571" y2="571"/>
<line fill="#000000" stroke="#000000" stroke-width="1" x1="902" x2="907" y1="571" y2="571"/>
<line fill="#000000" stroke="#000000" stroke-width="1" x1="912" x2="917" y1="571" y2="571"/>
<line fill="#000000" stroke="#000000" stroke-width="1" x1="922" x2="927" y1="571" y2="571"/>
<line fill="#000000" stroke="#000000" stroke-width="1" x1="932" x2="937" y1="571" y2="571"/>
<line fill="#000000" stroke="#000000" stroke-width="1" x1="926" x2="938" y1="578" y2="571"/>
<line fill="#000000" stroke="#000000" stroke-width="1" x1="926" x2="938" y1="564" y2="571"/>
<line fill="#000000" stroke="#000000" stroke-width="1" x1="862" x2="867" y1="394" y2="394"/>
<line fill="#000000" stroke="#000000" stroke-width="1" x1="872" x2="877" y1="394" y2="394"/>
<line fill="#000000" stroke="#000000" stroke-width="1" x1="882" x2="887" y1="394" y2="394"/>
<line fill="#000000" stroke="#000000" stroke-width="1" x1="892" x2="897" y1="394" y2="394"/>
<line fill="#000000" stroke="#000000" stroke-width="1" x1="902" x2="907" y1="394" y2="394"/>
<line fill="#000000" stroke="#000000" stroke-width="1" x1="912" x2="917" y1="394" y2="394"/>
<line fill="#000000" stroke="#000000" stroke-width="1" x1="922" x2="927" y1="394" y2="394"/>
<line fill="#000000" stroke="#000000" stroke-width="1" x1="918" x2="930" y1="401" y2="394"/>
<line fill="#000000" stroke="#000000" stroke-width="1" x1="918" x2="930" y1="387" y2="394"/>
<line fill="#000000" stroke="#000000" stroke-width="1" x1="862" x2="867" y1="244" y2="244"/>
<line fill="#000000" stroke="#000000" stroke-width="1" x1="872" x2="877" y1="244" y2="244"/>
<line fill="#000000" stroke="#000000" stroke-width="1" x1="882" x2="887" y1="244" y2="244"/>
<line fill="#000000" stroke="#000000" stroke-width="1" x1="892" x2="897" y1="244" y2="244"/>
<line fill="#000000" stroke="#000000" stroke-width="1" x1="902" x2="907" y1="244" y2="244"/>
<line fill="#000000" stroke="#000000" stroke-width="1" x1="912" x2="917" y1="244" y2="244"/>
<line fill="#000000" stroke="#000000" stroke-width="1" x1="910" x2="922" y1="251" y2="244"/>
<line fill="#000000" stroke="#000000" stroke-width="1" x1="910" x2="922" y1="237" y2="244"/>
<rect fill="#ffffff" height="67" stroke="#ffffff" stroke-width="1" width="156" x="458" y="24"/>
<rect fill="none" height="67" stroke="#000000" stroke-width="1" width="156" x="458" y="24"/>
<text font-family="Lucida Grande" font-size="13" x="474" y="38">
+ GenbankLocation</text>
<rect fill="#000000" height="1" stroke="#000000" stroke-width="1" width="156" x="458" y="48"/>
<text font-family="Lucida Grande" font-size="13" x="462" y="63">
-genbankStart : Integer</text>
<text font-family="Lucida Grande" font-size="13" x="462" y="80">
-end : Integer</text>
<line fill="#000000" stroke="#000000" stroke-width="1" x1="546" x2="546" y1="185" y2="180"/>
<line fill="#000000" stroke="#000000" stroke-width="1" x1="546" x2="546" y1="175" y2="170"/>
<line fill="#000000" stroke="#000000" stroke-width="1" x1="546" x2="546" y1="165" y2="160"/>
<line fill="#000000" stroke="#000000" stroke-width="1" x1="546" x2="546" y1="155" y2="150"/>
<line fill="#000000" stroke="#000000" stroke-width="1" x1="546" x2="546" y1="145" y2="140"/>
<line fill="#000000" stroke="#000000" stroke-width="1" x1="546" x2="546" y1="135" y2="130"/>
<line fill="#000000" stroke="#000000" stroke-width="1" x1="546" x2="546" y1="125" y2="120"/>
<line fill="#000000" stroke="#000000" stroke-width="1" x1="546" x2="546" y1="115" y2="110"/>
<line fill="#000000" stroke="#000000" stroke-width="1" x1="546" x2="546" y1="105" y2="100"/>
<line fill="#000000" stroke="#000000" stroke-width="1" x1="546" x2="546" y1="95" y2="90"/>
<line fill="#000000" stroke="#000000" stroke-width="1" x1="553" x2="546" y1="102" y2="90"/>
<line fill="#000000" stroke="#000000" stroke-width="1" x1="539" x2="546" y1="102" y2="90"/>
<polyline fill="none" points="330,88 330,48 458,48" stroke="#000000" stroke-width="1"/>
<line fill="#000000" stroke="#000000" stroke-width="1" x1="446" x2="458" y1="55" y2="48"/>
<line fill="#000000" stroke="#000000" stroke-width="1" x1="446" x2="458" y1="41" y2="48"/>
<text font-family="Lucida Grande" font-size="13" x="343" y="28">
 </text>
<text font-family="Lucida Grande" font-size="13" x="432" y="43">
0..*</text>
<text font-family="Lucida Grande" font-size="13" x="342" y="66">
-featureLocations</text>
<polyline fill="none" points="274,154 274,273" stroke="#000000" stroke-width="1"/>
<line fill="#000000" stroke="#000000" stroke-width="1" x1="267" x2="274" y1="261" y2="273"/>
<line fill="#000000" stroke="#000000" stroke-width="1" x1="281" x2="274" y1="261" y2="273"/>
<text font-family="Lucida Grande" font-size="13" x="290" y="218">
 </text>
<text font-family="Lucida Grande" font-size="13" x="280" y="256">
0..*</text>
<text font-family="Lucida Grande" font-size="13" x="155" y="254">
-featureQualifiers</text>
<polyline fill="none" points="258,481 258,800 1002,800 1002,571" stroke="#000000" stroke-width="1"/>
<polygon fill="#ffffff" points="1002,571 1009,583 995,583" stroke="#ffffff" stroke-width="1"/>
<polygon fill="none" points="1002,571 1009,583 995,583" stroke="#000000" stroke-width="1"/>
<polyline fill="none" points="170,464 106,464 106,128 202,128" stroke="#000000" stroke-width="1"/>
<line fill="#000000" stroke="#000000" stroke-width="1" x1="190" x2="202" y1="135" y2="128"/>
<line fill="#000000" stroke="#000000" stroke-width="1" x1="190" x2="202" y1="121" y2="128"/>
<text font-family="Lucida Grande" font-size="13" x="28" y="285">
 </text>
<text font-family="Lucida Grande" font-size="13" x="176" y="123">
0..*</text>
<text font-family="Lucida Grande" font-size="13" x="140" y="148">
-features</text>
<polyline fill="none" points="1069,224 1154,224 1154,768 571,768" stroke="#000000" stroke-width="1"/>
<line fill="#000000" stroke="#000000" stroke-width="1" x1="583" x2="571" y1="761" y2="768"/>
<line fill="#000000" stroke="#000000" stroke-width="1" x1="583" x2="571" y1="775" y2="768"/>
<text font-family="Lucida Grande" font-size="13" x="1170" y="750">
 </text>
<text font-family="Lucida Grande" font-size="13" x="579" y="783">
-locus</text>
<ellipse cx="1156" cy="745" fill="#000000" rx="0.5" ry="0.5" stroke="#000000" stroke-width="1"/>
<ellipse cx="1157" cy="746" fill="#ffffff" rx="-0.5" ry="-0.5" stroke="#ffffff" stroke-width="1"/>
<polyline fill="none" points="1002,260 1002,345" stroke="#000000" stroke-width="1"/>
<line fill="#000000" stroke="#000000" stroke-width="1" x1="995" x2="1002" y1="333" y2="345"/>
<line fill="#000000" stroke="#000000" stroke-width="1" x1="1009" x2="1002" y1="333" y2="345"/>
<text font-family="Lucida Grande" font-size="13" x="1018" y="307">
 </text>
<text font-family="Lucida Grande" font-size="13" x="953" y="326">
-origin</text>
<polyline fill="none" points="1069,256 1122,256 1122,528 1071,528" stroke="#000000" stroke-width="1"/>
<line fill="#000000" stroke="#000000" stroke-width="1" x1="1083" x2="1071" y1="521" y2="528"/>
<line fill="#000000" stroke="#000000" stroke-width="1" x1="1083" x2="1071" y1="535" y2="528"/>
<text font-family="Lucida Grande" font-size="13" x="1138" y="396">
 </text>
<text font-family="Lucida Grande" font-size="13" x="1075" y="523">
0..*</text>
<text font-family="Lucida Grande" font-size="13" x="1079" y="543">
-keywords</text>
<polyline fill="none" points="1069,208 1186,208 1186,816 194,816 194,481" stroke="#000000" stroke-width="1"/>
<line fill="#000000" stroke="#000000" stroke-width="1" x1="201" x2="194" y1="493" y2="481"/>
<line fill="#000000" stroke="#000000" stroke-width="1" x1="187" x2="194" y1="493" y2="481"/>
<text font-family="Lucida Grande" font-size="13" x="854" y="796">
 </text>
<text font-family="Lucida Grande" font-size="13" x="131" y="520">
-features</text>
<polyline fill="none" points="962,571 962,688 854,688" stroke="#000000" stroke-width="1"/>
<line fill="#000000" stroke="#000000" stroke-width="1" x1="866" x2="854" y1="681" y2="688"/>
<line fill="#000000" stroke="#000000" stroke-width="1" x1="866" x2="854" y1="695" y2="688"/>
<text font-family="Lucida Grande" font-size="13" x="884" y="660">
 </text>
<text font-family="Lucida Grande" font-size="13" x="858" y="683">
0..*</text>
<text font-family="Lucida Grande" font-size="13" x="862" y="703">
-subKeywords</text>
<polyline fill="none" points="571,736 1026,736 1026,571" stroke="#000000" stroke-width="1"/>
<polygon fill="#ffffff" points="1026,571 1033,583 1019,583" stroke="#ffffff" stroke-width="1"/>
<polygon fill="none" points="1026,571 1033,583 1019,583" stroke="#000000" stroke-width="1"/>
<polyline fill="none" points="1002,394 1002,505" stroke="#000000" stroke-width="1"/>
<polygon fill="#ffffff" points="1002,505 995,493 1009,493" stroke="#ffffff" stroke-width="1"/>
<polygon fill="none" points="1002,505 995,493 1009,493" stroke="#000000" stroke-width="1"/>
</svg>
