<?xml version="1.0" encoding="utf-8" ?>
<!DOCTYPE svg PUBLIC "-//W3C//DTD SVG 1.1//EN" "http://www.w3.org/Graphics/SVG/1.1/DTD/svg11.dtd">
<svg height="652" version="1.1" width="1592" xmlns="http://www.w3.org/2000/svg">
<rect fill="#ffffff" height="88" stroke="#ffffff" stroke-width="1" width="196" x="934" y="222"/>
<rect fill="none" height="88" stroke="#000000" stroke-width="1" width="196" x="934" y="222"/>
<text font-family="Lucida Grande" font-size="13" x="989" y="236">
+ ORFMapper</text>
<rect fill="#000000" height="1" stroke="#000000" stroke-width="1" width="196" x="934" y="246"/>
<text font-family="Lucida Grande" font-size="13" x="938" y="261">
+minORFSize : Integer  = 300</text>
<rect fill="#000000" height="1" stroke="#000000" stroke-width="1" width="196" x="934" y="279"/>
<rect fill="#ffffff" height="92" stroke="#ffffff" stroke-width="1" width="185" x="1190" y="206"/>
<rect fill="none" height="92" stroke="#000000" stroke-width="1" width="185" x="1190" y="206"/>
<text font-family="Lucida Grande" font-size="13" x="1263" y="220">
+ ORF</text>
<rect fill="#000000" height="1" stroke="#000000" stroke-width="1" width="185" x="1190" y="230"/>
<text font-family="Lucida Grande" font-size="13" x="1194" y="245">
+frame : Integer</text>
<text font-family="Lucida Grande" font-size="13" x="1194" y="262">
+stopCodons [0..*] : Integer</text>
<rect fill="#000000" height="1" stroke="#000000" stroke-width="1" width="185" x="1190" y="274"/>
<polyline fill="none" points="1129,254 1190,254" stroke="#000000" stroke-width="1"/>
<line fill="#000000" stroke="#000000" stroke-width="1" x1="1178" x2="1190" y1="261" y2="254"/>
<line fill="#000000" stroke="#000000" stroke-width="1" x1="1178" x2="1190" y1="247" y2="254"/>
<text font-family="Lucida Grande" font-size="13" x="1128" y="234">
 </text>
<text font-family="Lucida Grande" font-size="13" x="1164" y="249">
0..*</text>
<text font-family="Lucida Grande" font-size="13" x="1150" y="269">
-orfs</text>
<rect fill="#ffffff" height="568" stroke="#ffffff" stroke-width="1" width="452" x="14" y="70"/>
<rect fill="none" height="568" stroke="#000000" stroke-width="1" width="452" x="14" y="70"/>
<text font-family="Lucida Grande" font-size="13" x="178" y="84">
+ SequenceProvider</text>
<rect fill="#000000" height="1" stroke="#000000" stroke-width="1" width="452" x="14" y="94"/>
<text font-family="Lucida Grande" font-size="13" x="18" y="109">
-circular : Boolean</text>
<text font-family="Lucida Grande" font-size="13" x="18" y="126">
-name : String</text>
<text font-family="Lucida Grande" font-size="13" x="18" y="143">
-manualUpdateStarted : Boolean  = false</text>
<text font-family="Lucida Grande" font-size="13" x="18" y="160">
-needsRecalculateComplementSequence : Boolean  = true</text>
<text font-family="Lucida Grande" font-size="13" x="18" y="177">
-needsRecalculateReverseComplementSequence : Boolean  = true</text>
<rect fill="#000000" height="1" stroke="#000000" stroke-width="1" width="452" x="14" y="204"/>
<text font-family="Lucida Grande" font-size="13" x="18" y="219">
+fromGenbankFileModel( : GenbankFileModel) : FeaturedDNASequence</text>
<text font-family="Lucida Grande" font-size="13" x="18" y="236">
+fromJbeiSeqlXml( : String) : FeaturedDNASequence</text>
<text font-family="Lucida Grande" font-size="13" x="18" y="253">
+fromFasta( : String) : FeaturedDNASequence</text>
<text font-family="Lucida Grande" font-size="13" x="18" y="270">
+subSequence(start : Integer,end : Integer) : SymbolList</text>
<text font-family="Lucida Grande" font-size="13" x="18" y="287">
+subSequenceProvider(start : Integer,end : Integer) : SequenceProvider</text>
<text font-family="Lucida Grande" font-size="13" x="18" y="304">
+addFeature( : Feature, : Boolean)</text>
<text font-family="Lucida Grande" font-size="13" x="18" y="321">
+addFeatures( : ArrayList, : Boolean)</text>
<text font-family="Lucida Grande" font-size="13" x="18" y="338">
+removeFeature( : Feature, : Boolean)</text>
<text font-family="Lucida Grande" font-size="13" x="18" y="355">
+removeFeatures( : ArrayList, : Boolean)</text>
<text font-family="Lucida Grande" font-size="13" x="18" y="372">
+hasFeature( : Feature) : Boolean</text>
<text font-family="Lucida Grande" font-size="13" x="18" y="389">
+insertSequenceProvider( : SequenceProvider, : Integer, : Boolean)</text>
<text font-family="Lucida Grande" font-size="13" x="18" y="406">
+insertSequence( : SymbolList, : Integer, : Boolean)</text>
<text font-family="Lucida Grande" font-size="13" x="18" y="423">
+removeSequence( : Integer, : Integer, : Boolean)</text>
<text font-family="Lucida Grande" font-size="13" x="18" y="440">
+featuresByRange( : Integer, : Integer) : ArrayList</text>
<text font-family="Lucida Grande" font-size="13" x="18" y="457">
+featuresAt( : Integer) : ArrayList</text>
<text font-family="Lucida Grande" font-size="13" x="18" y="474">
+manualUpdateStart()</text>
<text font-family="Lucida Grande" font-size="13" x="18" y="491">
+manualUpdateEnd()</text>
<text font-family="Lucida Grande" font-size="13" x="18" y="508">
+clone() : SequenceProvider</text>
<text font-family="Lucida Grande" font-size="13" x="18" y="525">
+reverseSequence( : SequenceProvider) : SequenceProvider</text>
<text font-family="Lucida Grande" font-size="13" x="18" y="542">
+reverseComplementSequence()</text>
<text font-family="Lucida Grande" font-size="13" x="18" y="559">
+rebaseSequence( : Integer)</text>
<text font-family="Lucida Grande" font-size="13" x="18" y="576">
+toGenbankFileModel() : GenbankFileModel</text>
<text font-family="Lucida Grande" font-size="13" x="18" y="593">
-updateComplementSequence()</text>
<text font-family="Lucida Grande" font-size="13" x="18" y="610">
-updateReverseComplementSequence()</text>
<rect fill="#ffffff" height="125" stroke="#ffffff" stroke-width="1" width="160" x="646" y="30"/>
<rect fill="none" height="125" stroke="#000000" stroke-width="1" width="160" x="646" y="30"/>
<text font-family="Lucida Grande" font-size="13" x="668" y="64">
+ EventDispatcher</text>
<text font-family="Lucida Grande" font-size="13" x="694" y="45">
&lt;&lt;flex&gt;&gt;</text>
<rect fill="#000000" height="1" stroke="#000000" stroke-width="1" width="160" x="646" y="74"/>
<rect fill="#000000" height="1" stroke="#000000" stroke-width="1" width="160" x="646" y="95"/>
<text font-family="Lucida Grande" font-size="13" x="650" y="110">
+addEventListener()</text>
<text font-family="Lucida Grande" font-size="13" x="650" y="127">
+dispatchEvent( : Event)</text>
<text font-family="Lucida Grande" font-size="13" x="650" y="144">
+removeEventListener()</text>
<polyline fill="none" points="465,126 646,126" stroke="#000000" stroke-width="1"/>
<line fill="#000000" stroke="#000000" stroke-width="1" x1="634" x2="646" y1="133" y2="126"/>
<line fill="#000000" stroke="#000000" stroke-width="1" x1="634" x2="646" y1="119" y2="126"/>
<text font-family="Lucida Grande" font-size="13" x="524" y="106">
 </text>
<text font-family="Lucida Grande" font-size="13" x="558" y="143">
-dispatcher</text>
<rect fill="#ffffff" height="126" stroke="#ffffff" stroke-width="1" width="266" x="598" y="206"/>
<rect fill="none" height="126" stroke="#000000" stroke-width="1" width="266" x="598" y="206"/>
<text font-family="Lucida Grande" font-size="13" x="701" y="220">
+ Mapper</text>
<rect fill="#000000" height="1" stroke="#000000" stroke-width="1" width="266" x="598" y="230"/>
<text font-family="Lucida Grande" font-size="13" x="602" y="245">
+dirty : Boolean</text>
<rect fill="#000000" height="1" stroke="#000000" stroke-width="1" width="266" x="598" y="255"/>
<text font-family="Lucida Grande" font-size="13" x="602" y="270">
+recalculate()</text>
<text font-family="Lucida Grande" font-size="13" x="602" y="287">
+recalculateNonCircular()</text>
<text font-family="Lucida Grande" font-size="13" x="602" y="304">
+recalculateCircular()</text>
<text font-family="Lucida Grande" font-size="13" x="602" y="321">
+onSequenceProviderChanged( : Event)</text>
<polyline fill="none" points="718,206 718,154" stroke="#000000" stroke-width="1"/>
<polygon fill="#ffffff" points="718,154 725,166 711,166" stroke="#ffffff" stroke-width="1"/>
<polygon fill="none" points="718,154 725,166 711,166" stroke="#000000" stroke-width="1"/>
<polyline fill="none" points="598,235 465,235" stroke="#000000" stroke-width="1"/>
<line fill="#000000" stroke="#000000" stroke-width="1" x1="477" x2="465" y1="228" y2="235"/>
<line fill="#000000" stroke="#000000" stroke-width="1" x1="477" x2="465" y1="242" y2="235"/>
<text font-family="Lucida Grande" font-size="13" x="501" y="215">
 </text>
<text font-family="Lucida Grande" font-size="13" x="474" y="259">
-sequenceProvider</text>
<polyline fill="none" points="934,262 863,262" stroke="#000000" stroke-width="1"/>
<polygon fill="#ffffff" points="863,262 875,255 875,269" stroke="#ffffff" stroke-width="1"/>
<polygon fill="none" points="863,262 875,255 875,269" stroke="#000000" stroke-width="1"/>
<rect fill="#ffffff" height="72" stroke="#ffffff" stroke-width="1" width="271" x="942" y="54"/>
<rect fill="none" height="72" stroke="#000000" stroke-width="1" width="271" x="942" y="54"/>
<text font-family="Lucida Grande" font-size="13" x="1008" y="68">
+ StrandedAnnotation</text>
<rect fill="#000000" height="1" stroke="#000000" stroke-width="1" width="271" x="942" y="78"/>
<text font-family="Lucida Grande" font-size="13" x="946" y="93">
-strand : Integer  = StrandType.FORWARD</text>
<rect fill="#000000" height="1" stroke="#000000" stroke-width="1" width="271" x="942" y="103"/>
<polyline fill="none" points="1190,206 1190,125" stroke="#000000" stroke-width="1"/>
<polygon fill="#ffffff" points="1190,125 1197,137 1183,137" stroke="#ffffff" stroke-width="1"/>
<polygon fill="none" points="1190,125 1197,137 1183,137" stroke="#000000" stroke-width="1"/>
<rect fill="#ffffff" height="139" stroke="#ffffff" stroke-width="1" width="248" x="1286" y="14"/>
<rect fill="none" height="139" stroke="#000000" stroke-width="1" width="248" x="1286" y="14"/>
<text font-family="Lucida Grande" font-size="13" x="1371" y="28">
+ ORFFinder</text>
<rect fill="#000000" height="1" stroke="#000000" stroke-width="1" width="248" x="1286" y="38"/>
<rect fill="#000000" height="1" stroke="#000000" stroke-width="1" width="248" x="1286" y="59"/>
<text font-family="Lucida Grande" font-size="13" x="1290" y="74">
+calculateORFs()</text>
<text font-family="Lucida Grande" font-size="13" x="1290" y="91">
+calculateORFBothDirections()</text>
<text font-family="Lucida Grande" font-size="13" x="1290" y="108">
-orfPerFrame() : ArrayList</text>
<text font-family="Lucida Grande" font-size="13" x="1290" y="125">
-evaluatePossibleStop()</text>
<text font-family="Lucida Grande" font-size="13" x="1290" y="142">
-codonsSort()</text>
<line fill="#000000" stroke="#000000" stroke-width="1" x1="1342" x2="1342" y1="206" y2="201"/>
<line fill="#000000" stroke="#000000" stroke-width="1" x1="1342" x2="1342" y1="196" y2="191"/>
<line fill="#000000" stroke="#000000" stroke-width="1" x1="1342" x2="1342" y1="186" y2="181"/>
<line fill="#000000" stroke="#000000" stroke-width="1" x1="1342" x2="1342" y1="176" y2="171"/>
<line fill="#000000" stroke="#000000" stroke-width="1" x1="1342" x2="1342" y1="166" y2="161"/>
<line fill="#000000" stroke="#000000" stroke-width="1" x1="1342" x2="1342" y1="156" y2="152"/>
<line fill="#000000" stroke="#000000" stroke-width="1" x1="1349" x2="1342" y1="164" y2="152"/>
<line fill="#000000" stroke="#000000" stroke-width="1" x1="1335" x2="1342" y1="164" y2="152"/>
<rect fill="#ffffff" height="68" stroke="#ffffff" stroke-width="1" width="124" x="1406" y="214"/>
<rect fill="none" height="68" stroke="#000000" stroke-width="1" width="124" x="1406" y="214"/>
<text font-family="Lucida Grande" font-size="13" x="1411" y="228">
+ TranslationUtils</text>
<rect fill="#000000" height="1" stroke="#000000" stroke-width="1" width="124" x="1406" y="238"/>
<rect fill="#000000" height="1" stroke="#000000" stroke-width="1" width="124" x="1406" y="259"/>
<line fill="#000000" stroke="#000000" stroke-width="1" x1="1486" x2="1486" y1="152" y2="157"/>
<line fill="#000000" stroke="#000000" stroke-width="1" x1="1486" x2="1486" y1="162" y2="167"/>
<line fill="#000000" stroke="#000000" stroke-width="1" x1="1486" x2="1486" y1="172" y2="177"/>
<line fill="#000000" stroke="#000000" stroke-width="1" x1="1486" x2="1486" y1="182" y2="187"/>
<line fill="#000000" stroke="#000000" stroke-width="1" x1="1486" x2="1486" y1="192" y2="197"/>
<line fill="#000000" stroke="#000000" stroke-width="1" x1="1486" x2="1486" y1="202" y2="207"/>
<line fill="#000000" stroke="#000000" stroke-width="1" x1="1486" x2="1486" y1="212" y2="214"/>
<line fill="#000000" stroke="#000000" stroke-width="1" x1="1479" x2="1486" y1="202" y2="214"/>
<line fill="#000000" stroke="#000000" stroke-width="1" x1="1493" x2="1486" y1="202" y2="214"/>
<rect fill="#ffffff" height="262" stroke="#ffffff" stroke-width="1" width="248" x="598" y="374"/>
<rect fill="none" height="262" stroke="#000000" stroke-width="1" width="248" x="598" y="374"/>
<text font-family="Lucida Grande" font-size="13" x="683" y="388">
+ AAMapper</text>
<rect fill="#000000" height="1" stroke="#000000" stroke-width="1" width="248" x="598" y="398"/>
<text font-family="Lucida Grande" font-size="13" x="602" y="413">
-sequenceAA1Frame1 : String</text>
<text font-family="Lucida Grande" font-size="13" x="602" y="430">
-sequenceAA1Frame2 : String</text>
<text font-family="Lucida Grande" font-size="13" x="602" y="447">
-sequenceAA1Frame3 : String</text>
<text font-family="Lucida Grande" font-size="13" x="602" y="464">
-sequenceAA1Frame1Sparse : String</text>
<text font-family="Lucida Grande" font-size="13" x="602" y="481">
-sequenceAA1Frame2Sparse : String</text>
<text font-family="Lucida Grande" font-size="13" x="602" y="498">
-sequenceAA1Frame3Sparse : String</text>
<text font-family="Lucida Grande" font-size="13" x="602" y="515">
-revComAA1Frame1 : String</text>
<text font-family="Lucida Grande" font-size="13" x="602" y="532">
-revComAA1Frame2 : String</text>
<text font-family="Lucida Grande" font-size="13" x="602" y="549">
-revComAA1Frame3 : String</text>
<text font-family="Lucida Grande" font-size="13" x="602" y="566">
-revComAA1Frame1Sparse : String</text>
<text font-family="Lucida Grande" font-size="13" x="602" y="583">
-revComAA1Frame2Sparse : String</text>
<text font-family="Lucida Grande" font-size="13" x="602" y="600">
-revComAA1Frame3Sparse : String</text>
<rect fill="#000000" height="1" stroke="#000000" stroke-width="1" width="248" x="598" y="612"/>
<polyline fill="none" points="694,374 694,331" stroke="#000000" stroke-width="1"/>
<polygon fill="#ffffff" points="694,331 701,343 687,343" stroke="#ffffff" stroke-width="1"/>
<polygon fill="none" points="694,331 701,343 687,343" stroke="#000000" stroke-width="1"/>
<line fill="#000000" stroke="#000000" stroke-width="1" x1="845" x2="850" y1="494" y2="494"/>
<line fill="#000000" stroke="#000000" stroke-width="1" x1="855" x2="860" y1="494" y2="494"/>
<line fill="#000000" stroke="#000000" stroke-width="1" x1="865" x2="870" y1="494" y2="494"/>
<line fill="#000000" stroke="#000000" stroke-width="1" x1="875" x2="880" y1="494" y2="494"/>
<line fill="#000000" stroke="#000000" stroke-width="1" x1="885" x2="890" y1="494" y2="494"/>
<line fill="#000000" stroke="#000000" stroke-width="1" x1="895" x2="900" y1="494" y2="494"/>
<line fill="#000000" stroke="#000000" stroke-width="1" x1="905" x2="910" y1="494" y2="494"/>
<line fill="#000000" stroke="#000000" stroke-width="1" x1="915" x2="920" y1="494" y2="494"/>
<line fill="#000000" stroke="#000000" stroke-width="1" x1="925" x2="930" y1="494" y2="494"/>
<line fill="#000000" stroke="#000000" stroke-width="1" x1="935" x2="940" y1="494" y2="494"/>
<line fill="#000000" stroke="#000000" stroke-width="1" x1="945" x2="950" y1="494" y2="494"/>
<line fill="#000000" stroke="#000000" stroke-width="1" x1="955" x2="960" y1="494" y2="494"/>
<line fill="#000000" stroke="#000000" stroke-width="1" x1="965" x2="970" y1="494" y2="494"/>
<line fill="#000000" stroke="#000000" stroke-width="1" x1="975" x2="980" y1="494" y2="494"/>
<line fill="#000000" stroke="#000000" stroke-width="1" x1="985" x2="990" y1="494" y2="494"/>
<line fill="#000000" stroke="#000000" stroke-width="1" x1="995" x2="1000" y1="494" y2="494"/>
<line fill="#000000" stroke="#000000" stroke-width="1" x1="1005" x2="1010" y1="494" y2="494"/>
<line fill="#000000" stroke="#000000" stroke-width="1" x1="1015" x2="1020" y1="494" y2="494"/>
<line fill="#000000" stroke="#000000" stroke-width="1" x1="1025" x2="1030" y1="494" y2="494"/>
<line fill="#000000" stroke="#000000" stroke-width="1" x1="1035" x2="1040" y1="494" y2="494"/>
<line fill="#000000" stroke="#000000" stroke-width="1" x1="1045" x2="1050" y1="494" y2="494"/>
<line fill="#000000" stroke="#000000" stroke-width="1" x1="1055" x2="1060" y1="494" y2="494"/>
<line fill="#000000" stroke="#000000" stroke-width="1" x1="1065" x2="1070" y1="494" y2="494"/>
<line fill="#000000" stroke="#000000" stroke-width="1" x1="1075" x2="1080" y1="494" y2="494"/>
<line fill="#000000" stroke="#000000" stroke-width="1" x1="1085" x2="1090" y1="494" y2="494"/>
<line fill="#000000" stroke="#000000" stroke-width="1" x1="1095" x2="1100" y1="494" y2="494"/>
<line fill="#000000" stroke="#000000" stroke-width="1" x1="1105" x2="1110" y1="494" y2="494"/>
<line fill="#000000" stroke="#000000" stroke-width="1" x1="1115" x2="1120" y1="494" y2="494"/>
<line fill="#000000" stroke="#000000" stroke-width="1" x1="1125" x2="1130" y1="494" y2="494"/>
<line fill="#000000" stroke="#000000" stroke-width="1" x1="1135" x2="1140" y1="494" y2="494"/>
<line fill="#000000" stroke="#000000" stroke-width="1" x1="1145" x2="1150" y1="494" y2="494"/>
<line fill="#000000" stroke="#000000" stroke-width="1" x1="1155" x2="1160" y1="494" y2="494"/>
<line fill="#000000" stroke="#000000" stroke-width="1" x1="1165" x2="1170" y1="494" y2="494"/>
<line fill="#000000" stroke="#000000" stroke-width="1" x1="1175" x2="1180" y1="494" y2="494"/>
<line fill="#000000" stroke="#000000" stroke-width="1" x1="1185" x2="1190" y1="494" y2="494"/>
<line fill="#000000" stroke="#000000" stroke-width="1" x1="1195" x2="1200" y1="494" y2="494"/>
<line fill="#000000" stroke="#000000" stroke-width="1" x1="1205" x2="1210" y1="494" y2="494"/>
<line fill="#000000" stroke="#000000" stroke-width="1" x1="1215" x2="1220" y1="494" y2="494"/>
<line fill="#000000" stroke="#000000" stroke-width="1" x1="1225" x2="1230" y1="494" y2="494"/>
<line fill="#000000" stroke="#000000" stroke-width="1" x1="1235" x2="1240" y1="494" y2="494"/>
<line fill="#000000" stroke="#000000" stroke-width="1" x1="1245" x2="1250" y1="494" y2="494"/>
<line fill="#000000" stroke="#000000" stroke-width="1" x1="1255" x2="1260" y1="494" y2="494"/>
<line fill="#000000" stroke="#000000" stroke-width="1" x1="1265" x2="1270" y1="494" y2="494"/>
<line fill="#000000" stroke="#000000" stroke-width="1" x1="1275" x2="1280" y1="494" y2="494"/>
<line fill="#000000" stroke="#000000" stroke-width="1" x1="1285" x2="1290" y1="494" y2="494"/>
<line fill="#000000" stroke="#000000" stroke-width="1" x1="1295" x2="1300" y1="494" y2="494"/>
<line fill="#000000" stroke="#000000" stroke-width="1" x1="1305" x2="1310" y1="494" y2="494"/>
<line fill="#000000" stroke="#000000" stroke-width="1" x1="1315" x2="1320" y1="494" y2="494"/>
<line fill="#000000" stroke="#000000" stroke-width="1" x1="1325" x2="1330" y1="494" y2="494"/>
<line fill="#000000" stroke="#000000" stroke-width="1" x1="1335" x2="1340" y1="494" y2="494"/>
<line fill="#000000" stroke="#000000" stroke-width="1" x1="1345" x2="1350" y1="494" y2="494"/>
<line fill="#000000" stroke="#000000" stroke-width="1" x1="1355" x2="1360" y1="494" y2="494"/>
<line fill="#000000" stroke="#000000" stroke-width="1" x1="1365" x2="1370" y1="494" y2="494"/>
<line fill="#000000" stroke="#000000" stroke-width="1" x1="1375" x2="1380" y1="494" y2="494"/>
<line fill="#000000" stroke="#000000" stroke-width="1" x1="1385" x2="1390" y1="494" y2="494"/>
<line fill="#000000" stroke="#000000" stroke-width="1" x1="1395" x2="1400" y1="494" y2="494"/>
<line fill="#000000" stroke="#000000" stroke-width="1" x1="1405" x2="1410" y1="494" y2="494"/>
<line fill="#000000" stroke="#000000" stroke-width="1" x1="1415" x2="1420" y1="494" y2="494"/>
<line fill="#000000" stroke="#000000" stroke-width="1" x1="1425" x2="1430" y1="494" y2="494"/>
<line fill="#000000" stroke="#000000" stroke-width="1" x1="1435" x2="1440" y1="494" y2="494"/>
<line fill="#000000" stroke="#000000" stroke-width="1" x1="1445" x2="1450" y1="494" y2="494"/>
<line fill="#000000" stroke="#000000" stroke-width="1" x1="1455" x2="1460" y1="494" y2="494"/>
<line fill="#000000" stroke="#000000" stroke-width="1" x1="1465" x2="1470" y1="494" y2="494"/>
<line fill="#000000" stroke="#000000" stroke-width="1" x1="1470" x2="1470" y1="494" y2="489"/>
<line fill="#000000" stroke="#000000" stroke-width="1" x1="1470" x2="1470" y1="484" y2="479"/>
<line fill="#000000" stroke="#000000" stroke-width="1" x1="1470" x2="1470" y1="474" y2="469"/>
<line fill="#000000" stroke="#000000" stroke-width="1" x1="1470" x2="1470" y1="464" y2="459"/>
<line fill="#000000" stroke="#000000" stroke-width="1" x1="1470" x2="1470" y1="454" y2="449"/>
<line fill="#000000" stroke="#000000" stroke-width="1" x1="1470" x2="1470" y1="444" y2="439"/>
<line fill="#000000" stroke="#000000" stroke-width="1" x1="1470" x2="1470" y1="434" y2="429"/>
<line fill="#000000" stroke="#000000" stroke-width="1" x1="1470" x2="1470" y1="424" y2="419"/>
<line fill="#000000" stroke="#000000" stroke-width="1" x1="1470" x2="1470" y1="414" y2="409"/>
<line fill="#000000" stroke="#000000" stroke-width="1" x1="1470" x2="1470" y1="404" y2="399"/>
<line fill="#000000" stroke="#000000" stroke-width="1" x1="1470" x2="1470" y1="394" y2="389"/>
<line fill="#000000" stroke="#000000" stroke-width="1" x1="1470" x2="1470" y1="384" y2="379"/>
<line fill="#000000" stroke="#000000" stroke-width="1" x1="1470" x2="1470" y1="374" y2="369"/>
<line fill="#000000" stroke="#000000" stroke-width="1" x1="1470" x2="1470" y1="364" y2="359"/>
<line fill="#000000" stroke="#000000" stroke-width="1" x1="1470" x2="1470" y1="354" y2="349"/>
<line fill="#000000" stroke="#000000" stroke-width="1" x1="1470" x2="1470" y1="344" y2="339"/>
<line fill="#000000" stroke="#000000" stroke-width="1" x1="1470" x2="1470" y1="334" y2="329"/>
<line fill="#000000" stroke="#000000" stroke-width="1" x1="1470" x2="1470" y1="324" y2="319"/>
<line fill="#000000" stroke="#000000" stroke-width="1" x1="1470" x2="1470" y1="314" y2="309"/>
<line fill="#000000" stroke="#000000" stroke-width="1" x1="1470" x2="1470" y1="304" y2="299"/>
<line fill="#000000" stroke="#000000" stroke-width="1" x1="1470" x2="1470" y1="294" y2="289"/>
<line fill="#000000" stroke="#000000" stroke-width="1" x1="1470" x2="1470" y1="284" y2="281"/>
<line fill="#000000" stroke="#000000" stroke-width="1" x1="1477" x2="1470" y1="293" y2="281"/>
<line fill="#000000" stroke="#000000" stroke-width="1" x1="1463" x2="1470" y1="293" y2="281"/>
</svg>
