<?xml version="1.0" encoding="utf-8" ?>
<!DOCTYPE svg PUBLIC "-//W3C//DTD SVG 1.1//EN" "http://www.w3.org/Graphics/SVG/1.1/DTD/svg11.dtd">
<svg height="408" version="1.1" width="776" xmlns="http://www.w3.org/2000/svg">
<rect fill="#ffffff" height="71" stroke="#ffffff" stroke-width="1" width="299" x="222" y="166"/>
<rect fill="none" height="71" stroke="#000000" stroke-width="1" width="299" x="222" y="166"/>
<text font-family="Lucida Grande" font-size="13" x="301" y="180">
+ ApplicationMediator</text>
<rect fill="#000000" height="1" stroke="#000000" stroke-width="1" width="299" x="222" y="190"/>
<text font-family="Lucida Grande" font-size="13" x="226" y="205">
-importSequenceFileReference : FileReference</text>
<rect fill="#000000" height="1" stroke="#000000" stroke-width="1" width="299" x="222" y="215"/>
<rect fill="#ffffff" height="68" stroke="#ffffff" stroke-width="1" width="141" x="54" y="46"/>
<rect fill="none" height="68" stroke="#000000" stroke-width="1" width="141" x="54" y="46"/>
<text font-family="Lucida Grande" font-size="13" x="60" y="60">
+ FindPanelMediator</text>
<rect fill="#000000" height="1" stroke="#000000" stroke-width="1" width="141" x="54" y="70"/>
<rect fill="#000000" height="1" stroke="#000000" stroke-width="1" width="141" x="54" y="91"/>
<rect fill="#ffffff" height="68" stroke="#ffffff" stroke-width="1" width="212" x="550" y="46"/>
<rect fill="none" height="68" stroke="#000000" stroke-width="1" width="212" x="550" y="46"/>
<text font-family="Lucida Grande" font-size="13" x="556" y="60">
+ GenbankPropertyTabMediator</text>
<rect fill="#000000" height="1" stroke="#000000" stroke-width="1" width="212" x="550" y="70"/>
<rect fill="#000000" height="1" stroke="#000000" stroke-width="1" width="212" x="550" y="91"/>
<rect fill="#ffffff" height="68" stroke="#ffffff" stroke-width="1" width="194" x="126" y="326"/>
<rect fill="none" height="68" stroke="#000000" stroke-width="1" width="194" x="126" y="326"/>
<text font-family="Lucida Grande" font-size="13" x="132" y="340">
+ MainContentPanelMediator</text>
<rect fill="#000000" height="1" stroke="#000000" stroke-width="1" width="194" x="126" y="350"/>
<rect fill="#000000" height="1" stroke="#000000" stroke-width="1" width="194" x="126" y="371"/>
<rect fill="#ffffff" height="68" stroke="#ffffff" stroke-width="1" width="177" x="478" y="326"/>
<rect fill="none" height="68" stroke="#000000" stroke-width="1" width="177" x="478" y="326"/>
<text font-family="Lucida Grande" font-size="13" x="484" y="340">
+ MainControlBarMediator</text>
<rect fill="#000000" height="1" stroke="#000000" stroke-width="1" width="177" x="478" y="350"/>
<rect fill="#000000" height="1" stroke="#000000" stroke-width="1" width="177" x="478" y="371"/>
<rect fill="#ffffff" height="68" stroke="#ffffff" stroke-width="1" width="145" x="582" y="166"/>
<rect fill="none" height="68" stroke="#000000" stroke-width="1" width="145" x="582" y="166"/>
<text font-family="Lucida Grande" font-size="13" x="588" y="180">
+ MainMenuMediator</text>
<rect fill="#000000" height="1" stroke="#000000" stroke-width="1" width="145" x="582" y="190"/>
<rect fill="#000000" height="1" stroke="#000000" stroke-width="1" width="145" x="582" y="211"/>
<rect fill="#ffffff" height="68" stroke="#ffffff" stroke-width="1" width="139" x="14" y="174"/>
<rect fill="none" height="68" stroke="#000000" stroke-width="1" width="139" x="14" y="174"/>
<text font-family="Lucida Grande" font-size="13" x="20" y="188">
+ StatusBarMediator</text>
<rect fill="#000000" height="1" stroke="#000000" stroke-width="1" width="139" x="14" y="198"/>
<rect fill="#000000" height="1" stroke="#000000" stroke-width="1" width="139" x="14" y="219"/>
<rect fill="#ffffff" height="88" stroke="#ffffff" stroke-width="1" width="244" x="262" y="14"/>
<rect fill="none" height="88" stroke="#000000" stroke-width="1" width="244" x="262" y="14"/>
<text font-family="Lucida Grande" font-size="13" x="349" y="28">
+ Mediator</text>
<rect fill="#000000" height="1" stroke="#000000" stroke-width="1" width="244" x="262" y="38"/>
<rect fill="#000000" height="1" stroke="#000000" stroke-width="1" width="244" x="262" y="59"/>
<text font-family="Lucida Grande" font-size="13" x="266" y="74">
+handleNotification( : Notification)</text>
<text font-family="Lucida Grande" font-size="13" x="266" y="91">
+listNotificationInterests() : ArrayList</text>
<polyline fill="none" points="374,166 374,101" stroke="#000000" stroke-width="1"/>
<polygon fill="#ffffff" points="374,101 381,113 367,113" stroke="#ffffff" stroke-width="1"/>
<polygon fill="none" points="374,101 381,113 367,113" stroke="#000000" stroke-width="1"/>
<line fill="#000000" stroke="#000000" stroke-width="1" x1="520" x2="522" y1="166" y2="162"/>
<line fill="#000000" stroke="#000000" stroke-width="1" x1="525" x2="527" y1="158" y2="153"/>
<line fill="#000000" stroke="#000000" stroke-width="1" x1="530" x2="532" y1="149" y2="144"/>
<line fill="#000000" stroke="#000000" stroke-width="1" x1="535" x2="537" y1="140" y2="136"/>
<line fill="#000000" stroke="#000000" stroke-width="1" x1="540" x2="542" y1="131" y2="127"/>
<line fill="#000000" stroke="#000000" stroke-width="1" x1="545" x2="547" y1="122" y2="118"/>
<line fill="#000000" stroke="#000000" stroke-width="1" x1="550" x2="550" y1="126" y2="113"/>
<line fill="#000000" stroke="#000000" stroke-width="1" x1="537" x2="550" y1="119" y2="113"/>
<line fill="#000000" stroke="#000000" stroke-width="1" x1="520" x2="525" y1="198" y2="198"/>
<line fill="#000000" stroke="#000000" stroke-width="1" x1="530" x2="535" y1="198" y2="198"/>
<line fill="#000000" stroke="#000000" stroke-width="1" x1="540" x2="545" y1="198" y2="198"/>
<line fill="#000000" stroke="#000000" stroke-width="1" x1="550" x2="555" y1="198" y2="198"/>
<line fill="#000000" stroke="#000000" stroke-width="1" x1="560" x2="565" y1="198" y2="198"/>
<line fill="#000000" stroke="#000000" stroke-width="1" x1="570" x2="575" y1="198" y2="198"/>
<line fill="#000000" stroke="#000000" stroke-width="1" x1="580" x2="582" y1="198" y2="198"/>
<line fill="#000000" stroke="#000000" stroke-width="1" x1="570" x2="582" y1="205" y2="198"/>
<line fill="#000000" stroke="#000000" stroke-width="1" x1="570" x2="582" y1="191" y2="198"/>
<line fill="#000000" stroke="#000000" stroke-width="1" x1="478" x2="478" y1="236" y2="241"/>
<line fill="#000000" stroke="#000000" stroke-width="1" x1="478" x2="478" y1="246" y2="251"/>
<line fill="#000000" stroke="#000000" stroke-width="1" x1="478" x2="478" y1="256" y2="261"/>
<line fill="#000000" stroke="#000000" stroke-width="1" x1="478" x2="478" y1="266" y2="271"/>
<line fill="#000000" stroke="#000000" stroke-width="1" x1="478" x2="478" y1="276" y2="281"/>
<line fill="#000000" stroke="#000000" stroke-width="1" x1="478" x2="478" y1="286" y2="291"/>
<line fill="#000000" stroke="#000000" stroke-width="1" x1="478" x2="478" y1="296" y2="301"/>
<line fill="#000000" stroke="#000000" stroke-width="1" x1="478" x2="478" y1="306" y2="311"/>
<line fill="#000000" stroke="#000000" stroke-width="1" x1="478" x2="478" y1="316" y2="321"/>
<line fill="#000000" stroke="#000000" stroke-width="1" x1="471" x2="478" y1="314" y2="326"/>
<line fill="#000000" stroke="#000000" stroke-width="1" x1="485" x2="478" y1="314" y2="326"/>
<line fill="#000000" stroke="#000000" stroke-width="1" x1="310" x2="310" y1="236" y2="241"/>
<line fill="#000000" stroke="#000000" stroke-width="1" x1="310" x2="310" y1="246" y2="251"/>
<line fill="#000000" stroke="#000000" stroke-width="1" x1="310" x2="310" y1="256" y2="261"/>
<line fill="#000000" stroke="#000000" stroke-width="1" x1="310" x2="310" y1="266" y2="271"/>
<line fill="#000000" stroke="#000000" stroke-width="1" x1="310" x2="310" y1="276" y2="281"/>
<line fill="#000000" stroke="#000000" stroke-width="1" x1="310" x2="310" y1="286" y2="291"/>
<line fill="#000000" stroke="#000000" stroke-width="1" x1="310" x2="310" y1="296" y2="301"/>
<line fill="#000000" stroke="#000000" stroke-width="1" x1="310" x2="310" y1="306" y2="311"/>
<line fill="#000000" stroke="#000000" stroke-width="1" x1="310" x2="310" y1="316" y2="321"/>
<line fill="#000000" stroke="#000000" stroke-width="1" x1="303" x2="310" y1="314" y2="326"/>
<line fill="#000000" stroke="#000000" stroke-width="1" x1="317" x2="310" y1="314" y2="326"/>
<line fill="#000000" stroke="#000000" stroke-width="1" x1="222" x2="217" y1="206" y2="206"/>
<line fill="#000000" stroke="#000000" stroke-width="1" x1="212" x2="207" y1="206" y2="206"/>
<line fill="#000000" stroke="#000000" stroke-width="1" x1="202" x2="197" y1="206" y2="206"/>
<line fill="#000000" stroke="#000000" stroke-width="1" x1="192" x2="187" y1="206" y2="206"/>
<line fill="#000000" stroke="#000000" stroke-width="1" x1="182" x2="177" y1="206" y2="206"/>
<line fill="#000000" stroke="#000000" stroke-width="1" x1="172" x2="167" y1="206" y2="206"/>
<line fill="#000000" stroke="#000000" stroke-width="1" x1="162" x2="157" y1="206" y2="206"/>
<line fill="#000000" stroke="#000000" stroke-width="1" x1="164" x2="152" y1="199" y2="206"/>
<line fill="#000000" stroke="#000000" stroke-width="1" x1="164" x2="152" y1="213" y2="206"/>
<line fill="#000000" stroke="#000000" stroke-width="1" x1="222" x2="220" y1="166" y2="162"/>
<line fill="#000000" stroke="#000000" stroke-width="1" x1="218" x2="215" y1="158" y2="153"/>
<line fill="#000000" stroke="#000000" stroke-width="1" x1="213" x2="211" y1="149" y2="144"/>
<line fill="#000000" stroke="#000000" stroke-width="1" x1="208" x2="206" y1="140" y2="135"/>
<line fill="#000000" stroke="#000000" stroke-width="1" x1="204" x2="201" y1="131" y2="126"/>
<line fill="#000000" stroke="#000000" stroke-width="1" x1="199" x2="196" y1="122" y2="117"/>
<line fill="#000000" stroke="#000000" stroke-width="1" x1="205" x2="194" y1="120" y2="113"/>
<line fill="#000000" stroke="#000000" stroke-width="1" x1="193" x2="194" y1="126" y2="113"/>
</svg>
