<?xml version="1.0" encoding="utf-8" ?>
<!DOCTYPE svg PUBLIC "-//W3C//DTD SVG 1.1//EN" "http://www.w3.org/Graphics/SVG/1.1/DTD/svg11.dtd">
<svg height="974" version="1.1" width="1228" xmlns="http://www.w3.org/2000/svg">
<rect fill="#ffffff" height="68" stroke="#ffffff" stroke-width="1" width="144" x="158" y="254"/>
<rect fill="none" height="68" stroke="#000000" stroke-width="1" width="144" x="158" y="254"/>
<text font-family="Lucida Grande" font-size="13" x="163" y="268">
+ VectorEditorProject</text>
<rect fill="#000000" height="1" stroke="#000000" stroke-width="1" width="144" x="158" y="278"/>
<rect fill="#000000" height="1" stroke="#000000" stroke-width="1" width="144" x="158" y="299"/>
<rect fill="#ffffff" height="139" stroke="#ffffff" stroke-width="1" width="192" x="510" y="190"/>
<rect fill="none" height="139" stroke="#000000" stroke-width="1" width="192" x="510" y="190"/>
<text font-family="Lucida Grande" font-size="13" x="528" y="204">
+ FeaturedDNASequence</text>
<rect fill="#000000" height="1" stroke="#000000" stroke-width="1" width="192" x="510" y="214"/>
<text font-family="Lucida Grande" font-size="13" x="514" y="229">
-_sequence : String</text>
<text font-family="Lucida Grande" font-size="13" x="514" y="246">
-_accessionNumber : String</text>
<text font-family="Lucida Grande" font-size="13" x="514" y="263">
-_identifier : String</text>
<text font-family="Lucida Grande" font-size="13" x="514" y="280">
-_isCircular : Boolean  = true</text>
<text font-family="Lucida Grande" font-size="13" x="514" y="297">
-_name : String</text>
<rect fill="#000000" height="1" stroke="#000000" stroke-width="1" width="192" x="510" y="307"/>
<polyline fill="none" points="301,254 510,254" stroke="#000000" stroke-width="1"/>
<line fill="#000000" stroke="#000000" stroke-width="1" x1="498" x2="510" y1="261" y2="254"/>
<line fill="#000000" stroke="#000000" stroke-width="1" x1="498" x2="510" y1="247" y2="254"/>
<text font-family="Lucida Grande" font-size="13" x="374" y="234">
 </text>
<text font-family="Lucida Grande" font-size="13" x="345" y="281">
-_featuredDNASequence</text>
<rect fill="#ffffff" height="173" stroke="#ffffff" stroke-width="1" width="185" x="118" y="30"/>
<rect fill="none" height="173" stroke="#000000" stroke-width="1" width="185" x="118" y="30"/>
<text font-family="Lucida Grande" font-size="13" x="182" y="44">
+ Project</text>
<rect fill="#000000" height="1" stroke="#000000" stroke-width="1" width="185" x="118" y="54"/>
<text font-family="Lucida Grande" font-size="13" x="122" y="69">
-_name : String</text>
<text font-family="Lucida Grande" font-size="13" x="122" y="86">
-_description : String</text>
<text font-family="Lucida Grande" font-size="13" x="122" y="103">
-_uuid : Integer</text>
<text font-family="Lucida Grande" font-size="13" x="122" y="120">
-ownerName : String</text>
<text font-family="Lucida Grande" font-size="13" x="122" y="137">
-ownerEmail : String</text>
<text font-family="Lucida Grande" font-size="13" x="122" y="154">
-creationTime : String</text>
<text font-family="Lucida Grande" font-size="13" x="122" y="171">
-modificationTime : String</text>
<rect fill="#000000" height="1" stroke="#000000" stroke-width="1" width="185" x="118" y="181"/>
<polyline fill="none" points="246,254 246,202" stroke="#000000" stroke-width="1"/>
<polygon fill="#ffffff" points="246,202 253,214 239,214" stroke="#ffffff" stroke-width="1"/>
<polygon fill="none" points="246,202 253,214 239,214" stroke="#000000" stroke-width="1"/>
<rect fill="#ffffff" height="122" stroke="#ffffff" stroke-width="1" width="179" x="790" y="14"/>
<rect fill="none" height="122" stroke="#000000" stroke-width="1" width="179" x="790" y="14"/>
<text font-family="Lucida Grande" font-size="13" x="835" y="28">
+ DNAFeature</text>
<rect fill="#000000" height="1" stroke="#000000" stroke-width="1" width="179" x="790" y="38"/>
<text font-family="Lucida Grande" font-size="13" x="794" y="53">
-_name : String</text>
<text font-family="Lucida Grande" font-size="13" x="794" y="70">
-_type : String</text>
<text font-family="Lucida Grande" font-size="13" x="794" y="87">
-_strand : Integer</text>
<text font-family="Lucida Grande" font-size="13" x="794" y="104">
-_annotationType : String</text>
<rect fill="#000000" height="1" stroke="#000000" stroke-width="1" width="179" x="790" y="114"/>
<polyline fill="none" points="701,222 878,222 878,135" stroke="#000000" stroke-width="1"/>
<line fill="#000000" stroke="#000000" stroke-width="1" x1="885" x2="878" y1="147" y2="135"/>
<line fill="#000000" stroke="#000000" stroke-width="1" x1="871" x2="878" y1="147" y2="135"/>
<text font-family="Lucida Grande" font-size="13" x="802" y="162">
 </text>
<text font-family="Lucida Grande" font-size="13" x="850" y="162">
0..*</text>
<text font-family="Lucida Grande" font-size="13" x="889" y="158">
-_features</text>
<rect fill="#ffffff" height="105" stroke="#ffffff" stroke-width="1" width="130" x="1038" y="30"/>
<rect fill="none" height="105" stroke="#000000" stroke-width="1" width="130" x="1038" y="30"/>
<text font-family="Lucida Grande" font-size="13" x="1043" y="44">
+ DNAFeatureNote</text>
<rect fill="#000000" height="1" stroke="#000000" stroke-width="1" width="130" x="1038" y="54"/>
<text font-family="Lucida Grande" font-size="13" x="1042" y="69">
-_name : String</text>
<text font-family="Lucida Grande" font-size="13" x="1042" y="86">
-_value : String</text>
<text font-family="Lucida Grande" font-size="13" x="1042" y="103">
-_quoted : Boolean</text>
<rect fill="#000000" height="1" stroke="#000000" stroke-width="1" width="130" x="1038" y="113"/>
<polyline fill="none" points="968,78 1038,78" stroke="#000000" stroke-width="1"/>
<line fill="#000000" stroke="#000000" stroke-width="1" x1="1026" x2="1038" y1="85" y2="78"/>
<line fill="#000000" stroke="#000000" stroke-width="1" x1="1026" x2="1038" y1="71" y2="78"/>
<text font-family="Lucida Grande" font-size="13" x="972" y="58">
 </text>
<text font-family="Lucida Grande" font-size="13" x="1007" y="67">
0..*</text>
<text font-family="Lucida Grande" font-size="13" x="989" y="101">
-notes</text>
<rect fill="#ffffff" height="122" stroke="#ffffff" stroke-width="1" width="173" x="510" y="22"/>
<rect fill="none" height="122" stroke="#000000" stroke-width="1" width="173" x="510" y="22"/>
<text font-family="Lucida Grande" font-size="13" x="525" y="36">
+ DNAFeatureLocation</text>
<rect fill="#000000" height="1" stroke="#000000" stroke-width="1" width="173" x="510" y="46"/>
<text font-family="Lucida Grande" font-size="13" x="514" y="61">
-_genbankStart : Integer</text>
<text font-family="Lucida Grande" font-size="13" x="514" y="78">
-_end : Integer</text>
<text font-family="Lucida Grande" font-size="13" x="514" y="95">
-_singleResidue : Boolean</text>
<text font-family="Lucida Grande" font-size="13" x="514" y="112">
-_inBetween : Boolean</text>
<rect fill="#000000" height="1" stroke="#000000" stroke-width="1" width="173" x="510" y="122"/>
<polyline fill="none" points="790,70 682,70" stroke="#000000" stroke-width="1"/>
<line fill="#000000" stroke="#000000" stroke-width="1" x1="694" x2="682" y1="63" y2="70"/>
<line fill="#000000" stroke="#000000" stroke-width="1" x1="694" x2="682" y1="77" y2="70"/>
<text font-family="Lucida Grande" font-size="13" x="705" y="50">
 </text>
<text font-family="Lucida Grande" font-size="13" x="686" y="65">
0..*</text>
<text font-family="Lucida Grande" font-size="13" x="687" y="86">
-_locations</text>
<rect fill="#ffffff" height="568" stroke="#ffffff" stroke-width="1" width="455" x="478" y="390"/>
<rect fill="none" height="568" stroke="#000000" stroke-width="1" width="455" x="478" y="390"/>
<text font-family="Lucida Grande" font-size="13" x="643" y="404">
+ SequenceProvider</text>
<rect fill="#000000" height="1" stroke="#000000" stroke-width="1" width="455" x="478" y="414"/>
<text font-family="Lucida Grande" font-size="13" x="482" y="429">
-circular : Boolean</text>
<text font-family="Lucida Grande" font-size="13" x="482" y="446">
-name : String</text>
<text font-family="Lucida Grande" font-size="13" x="482" y="463">
-manualUpdateStarted : Boolean  = false</text>
<text font-family="Lucida Grande" font-size="13" x="482" y="480">
-needsRecalculateComplementSequence : Boolean  = true</text>
<text font-family="Lucida Grande" font-size="13" x="482" y="497">
-needsRecalculateReverseComplementSequence : Boolean  = true</text>
<rect fill="#000000" height="1" stroke="#000000" stroke-width="1" width="455" x="478" y="524"/>
<text font-family="Lucida Grande" font-size="13" x="482" y="539">
+fromGenbankFileModel( : GenbankFileModel) : FeaturedDNASequence</text>
<text font-family="Lucida Grande" font-size="13" x="482" y="556">
+fromJbeiSeqlXml( : String) : FeaturedDNASequence</text>
<text font-family="Lucida Grande" font-size="13" x="482" y="573">
+fromFasta( : String) : FeaturedDNASequence</text>
<text font-family="Lucida Grande" font-size="13" x="482" y="590">
+subSequence(start : Integer,end : Integer) : SymbolList</text>
<text font-family="Lucida Grande" font-size="13" x="482" y="607">
+subSequenceProvider(start : Integer,end : Integer) : SequenceProvider</text>
<text font-family="Lucida Grande" font-size="13" x="482" y="624">
+addFeature( : Feature, : Boolean)</text>
<text font-family="Lucida Grande" font-size="13" x="482" y="641">
+addFeatures( : ArrayList, : Boolean)</text>
<text font-family="Lucida Grande" font-size="13" x="482" y="658">
+removeFeature( : Feature, : Boolean)</text>
<text font-family="Lucida Grande" font-size="13" x="482" y="675">
+removeFeatures( : ArrayList, : Boolean)</text>
<text font-family="Lucida Grande" font-size="13" x="482" y="692">
+hasFeature( : Feature) : Boolean</text>
<text font-family="Lucida Grande" font-size="13" x="482" y="709">
+insertSequenceProvider( : SequenceProvider, : Integer, : Boolean)</text>
<text font-family="Lucida Grande" font-size="13" x="482" y="726">
+insertSequence( : SymbolList, : Integer, : Boolean)</text>
<text font-family="Lucida Grande" font-size="13" x="482" y="743">
+removeSequence( : Integer, : Integer, : Boolean)</text>
<text font-family="Lucida Grande" font-size="13" x="482" y="760">
+featuresByRange( : Integer, : Integer) : ArrayList</text>
<text font-family="Lucida Grande" font-size="13" x="482" y="777">
+featuresAt( : Integer) : ArrayList</text>
<text font-family="Lucida Grande" font-size="13" x="482" y="794">
+manualUpdateStart()</text>
<text font-family="Lucida Grande" font-size="13" x="482" y="811">
+manualUpdateEnd()</text>
<text font-family="Lucida Grande" font-size="13" x="482" y="828">
+clone() : SequenceProvider</text>
<text font-family="Lucida Grande" font-size="13" x="482" y="845">
+reverseSequence( : SequenceProvider) : SequenceProvider</text>
<text font-family="Lucida Grande" font-size="13" x="482" y="862">
+reverseComplementSequence()</text>
<text font-family="Lucida Grande" font-size="13" x="482" y="879">
+rebaseSequence( : Integer)</text>
<text font-family="Lucida Grande" font-size="13" x="482" y="896">
+toGenbankFileModel() : GenbankFileModel</text>
<text font-family="Lucida Grande" font-size="13" x="482" y="913">
-updateComplementSequence()</text>
<text font-family="Lucida Grande" font-size="13" x="482" y="930">
-updateReverseComplementSequence()</text>
<rect fill="#ffffff" height="68" stroke="#ffffff" stroke-width="1" width="93" x="171" y="392"/>
<rect fill="none" height="68" stroke="#000000" stroke-width="1" width="93" x="171" y="392"/>
<text font-family="Lucida Grande" font-size="13" x="176" y="406">
+ SymbolList</text>
<rect fill="#000000" height="1" stroke="#000000" stroke-width="1" width="93" x="171" y="416"/>
<rect fill="#000000" height="1" stroke="#000000" stroke-width="1" width="93" x="171" y="437"/>
<polyline fill="none" points="478,406 263,406" stroke="#000000" stroke-width="1"/>
<line fill="#000000" stroke="#000000" stroke-width="1" x1="275" x2="263" y1="399" y2="406"/>
<line fill="#000000" stroke="#000000" stroke-width="1" x1="275" x2="263" y1="413" y2="406"/>
<text font-family="Lucida Grande" font-size="13" x="869" y="118">
 </text>
<text font-family="Lucida Grande" font-size="13" x="298" y="421">
-sequence</text>
<polyline fill="none" points="478,438 263,438" stroke="#000000" stroke-width="1"/>
<line fill="#000000" stroke="#000000" stroke-width="1" x1="275" x2="263" y1="431" y2="438"/>
<line fill="#000000" stroke="#000000" stroke-width="1" x1="275" x2="263" y1="445" y2="438"/>
<text font-family="Lucida Grande" font-size="13" x="340" y="418">
 </text>
<text font-family="Lucida Grande" font-size="13" x="286" y="453">
-complementSequence</text>
<polyline fill="none" points="478,494 254,494 254,459" stroke="#000000" stroke-width="1"/>
<line fill="#000000" stroke="#000000" stroke-width="1" x1="261" x2="254" y1="471" y2="459"/>
<line fill="#000000" stroke="#000000" stroke-width="1" x1="247" x2="254" y1="471" y2="459"/>
<text font-family="Lucida Grande" font-size="13" x="318" y="474">
 </text>
<text font-family="Lucida Grande" font-size="13" x="258" y="509">
-reverseComplementSequence</text>
<rect fill="#ffffff" height="68" stroke="#ffffff" stroke-width="1" width="71" x="1054" y="510"/>
<rect fill="none" height="68" stroke="#000000" stroke-width="1" width="71" x="1054" y="510"/>
<text font-family="Lucida Grande" font-size="13" x="1059" y="524">
+ Feature</text>
<rect fill="#000000" height="1" stroke="#000000" stroke-width="1" width="71" x="1054" y="534"/>
<rect fill="#000000" height="1" stroke="#000000" stroke-width="1" width="71" x="1054" y="555"/>
<polyline fill="none" points="932,550 1054,550" stroke="#000000" stroke-width="1"/>
<line fill="#000000" stroke="#000000" stroke-width="1" x1="1042" x2="1054" y1="557" y2="550"/>
<line fill="#000000" stroke="#000000" stroke-width="1" x1="1042" x2="1054" y1="543" y2="550"/>
<text font-family="Lucida Grande" font-size="13" x="962" y="530">
 </text>
<text font-family="Lucida Grande" font-size="13" x="1028" y="545">
0..*</text>
<text font-family="Lucida Grande" font-size="13" x="980" y="567">
-features</text>
<rect fill="#ffffff" height="125" stroke="#ffffff" stroke-width="1" width="160" x="1054" y="606"/>
<rect fill="none" height="125" stroke="#000000" stroke-width="1" width="160" x="1054" y="606"/>
<text font-family="Lucida Grande" font-size="13" x="1076" y="640">
+ EventDispatcher</text>
<text font-family="Lucida Grande" font-size="13" x="1102" y="621">
&lt;&lt;flex&gt;&gt;</text>
<rect fill="#000000" height="1" stroke="#000000" stroke-width="1" width="160" x="1054" y="650"/>
<rect fill="#000000" height="1" stroke="#000000" stroke-width="1" width="160" x="1054" y="671"/>
<text font-family="Lucida Grande" font-size="13" x="1058" y="686">
+addEventListener()</text>
<text font-family="Lucida Grande" font-size="13" x="1058" y="703">
+dispatchEvent( : Event)</text>
<text font-family="Lucida Grande" font-size="13" x="1058" y="720">
+removeEventListener()</text>
<polyline fill="none" points="932,678 1054,678" stroke="#000000" stroke-width="1"/>
<line fill="#000000" stroke="#000000" stroke-width="1" x1="1042" x2="1054" y1="685" y2="678"/>
<line fill="#000000" stroke="#000000" stroke-width="1" x1="1042" x2="1054" y1="671" y2="678"/>
<text font-family="Lucida Grande" font-size="13" x="962" y="658">
 </text>
<text font-family="Lucida Grande" font-size="13" x="966" y="695">
-dispatcher</text>
<rect fill="#ffffff" height="66" stroke="#ffffff" stroke-width="1" width="104" x="14" y="574"/>
<rect fill="none" height="66" stroke="#000000" stroke-width="1" width="104" x="14" y="574"/>
<text font-family="Lucida Grande" font-size="13" x="28" y="608">
+ IMemento</text>
<text font-family="Lucida Grande" font-size="13" x="18" y="589">
&lt;&lt;interface&gt;&gt;</text>
<rect fill="#000000" height="1" stroke="#000000" stroke-width="1" width="104" x="14" y="618"/>
<rect fill="#ffffff" height="105" stroke="#ffffff" stroke-width="1" width="195" x="206" y="574"/>
<rect fill="none" height="105" stroke="#000000" stroke-width="1" width="195" x="206" y="574"/>
<text font-family="Lucida Grande" font-size="13" x="212" y="588">
+ SequenceProviderMemento</text>
<rect fill="#000000" height="1" stroke="#000000" stroke-width="1" width="195" x="206" y="598"/>
<text font-family="Lucida Grande" font-size="13" x="210" y="613">
-name : String</text>
<text font-family="Lucida Grande" font-size="13" x="210" y="630">
-circular : Boolean</text>
<text font-family="Lucida Grande" font-size="13" x="210" y="647">
-features : ArrayList</text>
<rect fill="#000000" height="1" stroke="#000000" stroke-width="1" width="195" x="206" y="657"/>
<line fill="#000000" stroke="#000000" stroke-width="1" x1="478" x2="473" y1="614" y2="614"/>
<line fill="#000000" stroke="#000000" stroke-width="1" x1="468" x2="463" y1="614" y2="614"/>
<line fill="#000000" stroke="#000000" stroke-width="1" x1="458" x2="453" y1="614" y2="614"/>
<line fill="#000000" stroke="#000000" stroke-width="1" x1="448" x2="443" y1="614" y2="614"/>
<line fill="#000000" stroke="#000000" stroke-width="1" x1="438" x2="433" y1="614" y2="614"/>
<line fill="#000000" stroke="#000000" stroke-width="1" x1="428" x2="423" y1="614" y2="614"/>
<line fill="#000000" stroke="#000000" stroke-width="1" x1="418" x2="413" y1="614" y2="614"/>
<line fill="#000000" stroke="#000000" stroke-width="1" x1="408" x2="403" y1="614" y2="614"/>
<line fill="#000000" stroke="#000000" stroke-width="1" x1="412" x2="400" y1="607" y2="614"/>
<line fill="#000000" stroke="#000000" stroke-width="1" x1="412" x2="400" y1="621" y2="614"/>
<rect fill="#ffffff" height="68" stroke="#ffffff" stroke-width="1" width="169" x="1006" y="774"/>
<rect fill="none" height="68" stroke="#000000" stroke-width="1" width="169" x="1006" y="774"/>
<text font-family="Lucida Grande" font-size="13" x="1011" y="788">
+ SequenceProviderEvent</text>
<rect fill="#000000" height="1" stroke="#000000" stroke-width="1" width="169" x="1006" y="798"/>
<rect fill="#000000" height="1" stroke="#000000" stroke-width="1" width="169" x="1006" y="819"/>
<line fill="#000000" stroke="#000000" stroke-width="1" x1="932" x2="937" y1="814" y2="814"/>
<line fill="#000000" stroke="#000000" stroke-width="1" x1="942" x2="947" y1="814" y2="814"/>
<line fill="#000000" stroke="#000000" stroke-width="1" x1="952" x2="957" y1="814" y2="814"/>
<line fill="#000000" stroke="#000000" stroke-width="1" x1="962" x2="967" y1="814" y2="814"/>
<line fill="#000000" stroke="#000000" stroke-width="1" x1="972" x2="977" y1="814" y2="814"/>
<line fill="#000000" stroke="#000000" stroke-width="1" x1="982" x2="987" y1="814" y2="814"/>
<line fill="#000000" stroke="#000000" stroke-width="1" x1="992" x2="997" y1="814" y2="814"/>
<line fill="#000000" stroke="#000000" stroke-width="1" x1="1002" x2="1006" y1="814" y2="814"/>
<line fill="#000000" stroke="#000000" stroke-width="1" x1="994" x2="1006" y1="821" y2="814"/>
<line fill="#000000" stroke="#000000" stroke-width="1" x1="994" x2="1006" y1="807" y2="814"/>
<rect fill="#ffffff" height="71" stroke="#ffffff" stroke-width="1" width="223" x="990" y="414"/>
<rect fill="none" height="71" stroke="#000000" stroke-width="1" width="223" x="990" y="414"/>
<text font-family="Lucida Grande" font-size="13" x="1062" y="428">
+ DNATools</text>
<rect fill="#000000" height="1" stroke="#000000" stroke-width="1" width="223" x="990" y="438"/>
<rect fill="#000000" height="1" stroke="#000000" stroke-width="1" width="223" x="990" y="459"/>
<text font-family="Lucida Grande" font-size="13" x="994" y="474">
+createDNA( : String) : SymbolList</text>
<line fill="#000000" stroke="#000000" stroke-width="1" x1="932" x2="937" y1="454" y2="454"/>
<line fill="#000000" stroke="#000000" stroke-width="1" x1="942" x2="947" y1="454" y2="454"/>
<line fill="#000000" stroke="#000000" stroke-width="1" x1="952" x2="957" y1="454" y2="454"/>
<line fill="#000000" stroke="#000000" stroke-width="1" x1="962" x2="967" y1="454" y2="454"/>
<line fill="#000000" stroke="#000000" stroke-width="1" x1="972" x2="977" y1="454" y2="454"/>
<line fill="#000000" stroke="#000000" stroke-width="1" x1="982" x2="987" y1="454" y2="454"/>
<line fill="#000000" stroke="#000000" stroke-width="1" x1="978" x2="990" y1="461" y2="454"/>
<line fill="#000000" stroke="#000000" stroke-width="1" x1="978" x2="990" y1="447" y2="454"/>
<rect fill="#ffffff" height="106" stroke="#ffffff" stroke-width="1" width="148" x="238" y="846"/>
<rect fill="none" height="106" stroke="#000000" stroke-width="1" width="148" x="238" y="846"/>
<text font-family="Lucida Grande" font-size="13" x="247" y="860">
+ GenbankFileModel</text>
<rect fill="#000000" height="1" stroke="#000000" stroke-width="1" width="148" x="238" y="870"/>
<text font-family="Lucida Grande" font-size="13" x="242" y="885">
-accession : String</text>
<text font-family="Lucida Grande" font-size="13" x="242" y="902">
-version : String</text>
<text font-family="Lucida Grande" font-size="13" x="242" y="919">
-keywordsTag : String</text>
<rect fill="#000000" height="1" stroke="#000000" stroke-width="1" width="148" x="238" y="929"/>
<line fill="#000000" stroke="#000000" stroke-width="1" x1="590" x2="590" y1="390" y2="385"/>
<line fill="#000000" stroke="#000000" stroke-width="1" x1="590" x2="590" y1="380" y2="375"/>
<line fill="#000000" stroke="#000000" stroke-width="1" x1="590" x2="590" y1="370" y2="365"/>
<line fill="#000000" stroke="#000000" stroke-width="1" x1="590" x2="590" y1="360" y2="355"/>
<line fill="#000000" stroke="#000000" stroke-width="1" x1="590" x2="590" y1="350" y2="345"/>
<line fill="#000000" stroke="#000000" stroke-width="1" x1="590" x2="590" y1="340" y2="335"/>
<line fill="#000000" stroke="#000000" stroke-width="1" x1="590" x2="590" y1="330" y2="328"/>
<line fill="#000000" stroke="#000000" stroke-width="1" x1="597" x2="590" y1="340" y2="328"/>
<line fill="#000000" stroke="#000000" stroke-width="1" x1="583" x2="590" y1="340" y2="328"/>
<rect fill="#ffffff" height="66" stroke="#ffffff" stroke-width="1" width="102" x="1022" y="894"/>
<rect fill="none" height="66" stroke="#000000" stroke-width="1" width="102" x="1022" y="894"/>
<text font-family="Lucida Grande" font-size="13" x="1060" y="928">
XML</text>
<text font-family="Lucida Grande" font-size="13" x="1026" y="909">
&lt;&lt;datatype&gt;&gt;</text>
<rect fill="#000000" height="1" stroke="#000000" stroke-width="1" width="102" x="1022" y="938"/>
<line fill="#000000" stroke="#000000" stroke-width="1" x1="932" x2="937" y1="926" y2="926"/>
<line fill="#000000" stroke="#000000" stroke-width="1" x1="942" x2="947" y1="926" y2="926"/>
<line fill="#000000" stroke="#000000" stroke-width="1" x1="952" x2="957" y1="926" y2="926"/>
<line fill="#000000" stroke="#000000" stroke-width="1" x1="962" x2="967" y1="926" y2="926"/>
<line fill="#000000" stroke="#000000" stroke-width="1" x1="972" x2="977" y1="926" y2="926"/>
<line fill="#000000" stroke="#000000" stroke-width="1" x1="982" x2="987" y1="926" y2="926"/>
<line fill="#000000" stroke="#000000" stroke-width="1" x1="992" x2="997" y1="926" y2="926"/>
<line fill="#000000" stroke="#000000" stroke-width="1" x1="1002" x2="1007" y1="926" y2="926"/>
<line fill="#000000" stroke="#000000" stroke-width="1" x1="1012" x2="1017" y1="926" y2="926"/>
<line fill="#000000" stroke="#000000" stroke-width="1" x1="1010" x2="1022" y1="933" y2="926"/>
<line fill="#000000" stroke="#000000" stroke-width="1" x1="1010" x2="1022" y1="919" y2="926"/>
<line fill="#000000" stroke="#000000" stroke-width="1" x1="478" x2="473" y1="902" y2="902"/>
<line fill="#000000" stroke="#000000" stroke-width="1" x1="468" x2="463" y1="902" y2="902"/>
<line fill="#000000" stroke="#000000" stroke-width="1" x1="458" x2="453" y1="902" y2="902"/>
<line fill="#000000" stroke="#000000" stroke-width="1" x1="448" x2="443" y1="902" y2="902"/>
<line fill="#000000" stroke="#000000" stroke-width="1" x1="438" x2="433" y1="902" y2="902"/>
<line fill="#000000" stroke="#000000" stroke-width="1" x1="428" x2="423" y1="902" y2="902"/>
<line fill="#000000" stroke="#000000" stroke-width="1" x1="418" x2="413" y1="902" y2="902"/>
<line fill="#000000" stroke="#000000" stroke-width="1" x1="408" x2="403" y1="902" y2="902"/>
<line fill="#000000" stroke="#000000" stroke-width="1" x1="398" x2="393" y1="902" y2="902"/>
<line fill="#000000" stroke="#000000" stroke-width="1" x1="388" x2="385" y1="902" y2="902"/>
<line fill="#000000" stroke="#000000" stroke-width="1" x1="397" x2="385" y1="895" y2="902"/>
<line fill="#000000" stroke="#000000" stroke-width="1" x1="397" x2="385" y1="909" y2="902"/>
<line fill="#000000" stroke="#000000" stroke-width="1" x1="206" x2="201" y1="614" y2="614"/>
<line fill="#000000" stroke="#000000" stroke-width="1" x1="196" x2="191" y1="614" y2="614"/>
<line fill="#000000" stroke="#000000" stroke-width="1" x1="186" x2="181" y1="614" y2="614"/>
<line fill="#000000" stroke="#000000" stroke-width="1" x1="176" x2="171" y1="614" y2="614"/>
<line fill="#000000" stroke="#000000" stroke-width="1" x1="166" x2="161" y1="614" y2="614"/>
<line fill="#000000" stroke="#000000" stroke-width="1" x1="156" x2="151" y1="614" y2="614"/>
<line fill="#000000" stroke="#000000" stroke-width="1" x1="146" x2="141" y1="614" y2="614"/>
<line fill="#000000" stroke="#000000" stroke-width="1" x1="136" x2="131" y1="614" y2="614"/>
<line fill="#000000" stroke="#000000" stroke-width="1" x1="126" x2="121" y1="614" y2="614"/>
<polygon fill="#ffffff" points="117,614 129,607 129,621" stroke="#ffffff" stroke-width="1"/>
<polygon fill="none" points="117,614 129,607 129,621" stroke="#000000" stroke-width="1"/>
<text font-family="Lucida Grande" font-size="13" x="121" y="602">
&lt;&lt;realize&gt;&gt;</text>
<rect fill="#ffffff" height="87" stroke="#ffffff" stroke-width="1" width="198" x="166" y="718"/>
<rect fill="none" height="87" stroke="#000000" stroke-width="1" width="198" x="166" y="718"/>
<text font-family="Lucida Grande" font-size="13" x="224" y="752">
+ IOriginator</text>
<text font-family="Lucida Grande" font-size="13" x="217" y="733">
&lt;&lt;interface&gt;&gt;</text>
<rect fill="#000000" height="1" stroke="#000000" stroke-width="1" width="198" x="166" y="762"/>
<text font-family="Lucida Grande" font-size="13" x="170" y="777">
+createMemento() : IMemento</text>
<text font-family="Lucida Grande" font-size="13" x="170" y="794">
+setMemento( : IMemento)</text>
<line fill="#000000" stroke="#000000" stroke-width="1" x1="478" x2="473" y1="758" y2="758"/>
<line fill="#000000" stroke="#000000" stroke-width="1" x1="468" x2="463" y1="758" y2="758"/>
<line fill="#000000" stroke="#000000" stroke-width="1" x1="458" x2="453" y1="758" y2="758"/>
<line fill="#000000" stroke="#000000" stroke-width="1" x1="448" x2="443" y1="758" y2="758"/>
<line fill="#000000" stroke="#000000" stroke-width="1" x1="438" x2="433" y1="758" y2="758"/>
<line fill="#000000" stroke="#000000" stroke-width="1" x1="428" x2="423" y1="758" y2="758"/>
<line fill="#000000" stroke="#000000" stroke-width="1" x1="418" x2="413" y1="758" y2="758"/>
<line fill="#000000" stroke="#000000" stroke-width="1" x1="408" x2="403" y1="758" y2="758"/>
<line fill="#000000" stroke="#000000" stroke-width="1" x1="398" x2="393" y1="758" y2="758"/>
<line fill="#000000" stroke="#000000" stroke-width="1" x1="388" x2="383" y1="758" y2="758"/>
<line fill="#000000" stroke="#000000" stroke-width="1" x1="378" x2="373" y1="758" y2="758"/>
<line fill="#000000" stroke="#000000" stroke-width="1" x1="368" x2="363" y1="758" y2="758"/>
<polygon fill="#ffffff" points="363,758 375,751 375,765" stroke="#ffffff" stroke-width="1"/>
<polygon fill="none" points="363,758 375,751 375,765" stroke="#000000" stroke-width="1"/>
<text font-family="Lucida Grande" font-size="13" x="380" y="746">
&lt;&lt;realize&gt;&gt;</text>
<polyline fill="none" points="222,574 222,459" stroke="#000000" stroke-width="1"/>
<line fill="#000000" stroke="#000000" stroke-width="1" x1="229" x2="222" y1="471" y2="459"/>
<line fill="#000000" stroke="#000000" stroke-width="1" x1="215" x2="222" y1="471" y2="459"/>
<text font-family="Lucida Grande" font-size="13" x="144" y="522">
 </text>
<text font-family="Lucida Grande" font-size="13" x="142" y="488">
-sequence</text>
</svg>
